<svg preserveAspectRatio="none" width="100%" height="100%" overflow="visible" style="display: block;" viewBox="0 0 377.002 161" fill="none" xmlns="http://www.w3.org/2000/svg">
<foreignObject x="-180.952" y="-180.952" width="738.906" height="522.904"><div xmlns="http://www.w3.org/1999/xhtml" style="backdrop-filter:blur(90.48px);clip-path:url(#bgblur_0_0_4_clip_path);height:100%;width:100%"></div></foreignObject><path id="Union" data-figma-bg-blur-radius="180.952" d="M269.532 0C279.387 0 288.619 2.66876 296.546 7.32324C304.472 2.67006 313.702 0.00198136 323.556 0.00195313C353.073 0.00195313 377.002 23.9435 377.002 53.4766C377.002 63.3353 374.334 72.5702 369.684 80.5C374.335 88.43 377.002 97.6655 377.002 107.524C377.002 137.057 353.073 160.998 323.556 160.998C313.702 160.998 304.472 158.33 296.546 153.677C288.619 158.331 279.387 161 269.532 161C259.679 161 250.448 158.332 242.522 153.679C234.598 158.331 225.369 160.998 215.517 160.998C205.661 160.998 196.428 158.328 188.501 153.673C180.574 158.328 171.341 160.998 161.485 160.998C151.633 160.998 142.404 158.331 134.479 153.679C126.555 158.329 117.328 160.996 107.478 160.996C97.6223 160.996 88.3905 158.327 80.4639 153.672C72.5364 158.328 63.3031 160.998 53.4463 160.998C23.9288 160.998 0.00017723 137.057 0 107.524C0 97.6652 2.66715 88.4291 7.31836 80.499C2.66729 72.569 6.05406e-05 63.3336 0 53.4746C0 23.9416 23.9287 8.45817e-05 53.4463 0C63.3023 0 72.5349 2.66988 80.4619 7.3252C88.389 2.66982 97.6215 2.89309e-05 107.478 0C117.329 0 126.557 2.66729 134.481 7.31836C142.406 2.66722 151.634 2.96052e-05 161.485 0C171.341 0 180.574 2.66988 188.501 7.3252C196.428 2.66982 205.661 2.82421e-05 215.517 0C225.369 0 234.599 2.66788 242.524 7.32031C250.45 2.66781 259.68 3.0987e-05 269.532 0Z" fill="var(--fill-0, white)" fill-opacity="0.9"/>
<defs>
<clipPath id="bgblur_0_0_4_clip_path" transform="translate(180.952 180.952)"><path d="M269.532 0C279.387 0 288.619 2.66876 296.546 7.32324C304.472 2.67006 313.702 0.00198136 323.556 0.00195313C353.073 0.00195313 377.002 23.9435 377.002 53.4766C377.002 63.3353 374.334 72.5702 369.684 80.5C374.335 88.43 377.002 97.6655 377.002 107.524C377.002 137.057 353.073 160.998 323.556 160.998C313.702 160.998 304.472 158.33 296.546 153.677C288.619 158.331 279.387 161 269.532 161C259.679 161 250.448 158.332 242.522 153.679C234.598 158.331 225.369 160.998 215.517 160.998C205.661 160.998 196.428 158.328 188.501 153.673C180.574 158.328 171.341 160.998 161.485 160.998C151.633 160.998 142.404 158.331 134.479 153.679C126.555 158.329 117.328 160.996 107.478 160.996C97.6223 160.996 88.3905 158.327 80.4639 153.672C72.5364 158.328 63.3031 160.998 53.4463 160.998C23.9288 160.998 0.00017723 137.057 0 107.524C0 97.6652 2.66715 88.4291 7.31836 80.499C2.66729 72.569 6.05406e-05 63.3336 0 53.4746C0 23.9416 23.9287 8.45817e-05 53.4463 0C63.3023 0 72.5349 2.66988 80.4619 7.3252C88.389 2.66982 97.6215 2.89309e-05 107.478 0C117.329 0 126.557 2.66729 134.481 7.31836C142.406 2.66722 151.634 2.96052e-05 161.485 0C171.341 0 180.574 2.66988 188.501 7.3252C196.428 2.66982 205.661 2.82421e-05 215.517 0C225.369 0 234.599 2.66788 242.524 7.32031C250.45 2.66781 259.68 3.0987e-05 269.532 0Z"/>
</clipPath></defs>
</svg>
