<svg preserveAspectRatio="none" width="100%" height="100%" overflow="visible" style="display: block;" viewBox="0 0 121.091 90.4341" fill="none" xmlns="http://www.w3.org/2000/svg">
<g id="icon">
<circle id="Ellipse 38" cx="74.8118" cy="3.47642" r="3.47624" transform="rotate(180 74.8118 3.47642)" fill="var(--fill-0, #E3E2E0)"/>
<circle id="Ellipse 311" cx="3.47624" cy="3.47624" r="3.47624" transform="matrix(-1 0 0 1 78.288 83.4816)" fill="var(--fill-0, #E3E2E0)"/>
<circle id="Ellipse 39" cx="67.678" cy="10.4284" r="3.47624" transform="rotate(180 67.678 10.4284)" fill="var(--fill-0, #E3E2E0)"/>
<circle id="Ellipse 312" cx="3.47624" cy="3.47624" r="3.47624" transform="matrix(-1 0 0 1 71.1542 76.5296)" fill="var(--fill-0, #E3E2E0)"/>
<circle id="Ellipse 40" cx="74.8118" cy="10.4284" r="3.47624" transform="rotate(180 74.8118 10.4284)" fill="var(--fill-0, #E3E2E0)"/>
<circle id="Ellipse 313" cx="3.47624" cy="3.47624" r="3.47624" transform="matrix(-1 0 0 1 78.288 76.5296)" fill="var(--fill-0, #E3E2E0)"/>
<circle id="Ellipse 41" cx="81.9455" cy="10.4284" r="3.47624" transform="rotate(180 81.9455 10.4284)" fill="var(--fill-0, #E3E2E0)"/>
<circle id="Ellipse 314" cx="3.47624" cy="3.47624" r="3.47624" transform="matrix(-1 0 0 1 85.4218 76.5296)" fill="var(--fill-0, #E3E2E0)"/>
<circle id="Ellipse 42" cx="74.8118" cy="17.3807" r="3.47624" transform="rotate(180 74.8118 17.3807)" fill="var(--fill-0, #E3E2E0)"/>
<circle id="Ellipse 315" cx="3.47624" cy="3.47624" r="3.47624" transform="matrix(-1 0 0 1 78.288 69.5773)" fill="var(--fill-0, #E3E2E0)"/>
<circle id="Ellipse 43" cx="81.9455" cy="17.3807" r="3.47624" transform="rotate(180 81.9455 17.3807)" fill="var(--fill-0, #E3E2E0)"/>
<circle id="Ellipse 316" cx="3.47624" cy="3.47624" r="3.47624" transform="matrix(-1 0 0 1 85.4218 69.5773)" fill="var(--fill-0, #E3E2E0)"/>
<circle id="Ellipse 44" cx="89.0806" cy="17.3807" r="3.47624" transform="rotate(180 89.0806 17.3807)" fill="var(--fill-0, #E3E2E0)"/>
<circle id="Ellipse 317" cx="3.47624" cy="3.47624" r="3.47624" transform="matrix(-1 0 0 1 92.5569 69.5773)" fill="var(--fill-0, #E3E2E0)"/>
<circle id="Ellipse 45" cx="81.9455" cy="24.3334" r="3.47624" transform="rotate(180 81.9455 24.3334)" fill="var(--fill-0, #E3E2E0)"/>
<circle id="Ellipse 318" cx="3.47624" cy="3.47624" r="3.47624" transform="matrix(-1 0 0 1 85.4218 62.6242)" fill="var(--fill-0, #E3E2E0)"/>
<circle id="Ellipse 46" cx="89.0806" cy="24.3334" r="3.47624" transform="rotate(180 89.0806 24.3334)" fill="var(--fill-0, #E3E2E0)"/>
<circle id="Ellipse 319" cx="3.47624" cy="3.47624" r="3.47624" transform="matrix(-1 0 0 1 92.5569 62.6242)" fill="var(--fill-0, #E3E2E0)"/>
<circle id="Ellipse 47" cx="96.2131" cy="24.3334" r="3.47624" transform="rotate(180 96.2131 24.3334)" fill="var(--fill-0, #E3E2E0)"/>
<circle id="Ellipse 320" cx="3.47624" cy="3.47624" r="3.47624" transform="matrix(-1 0 0 1 99.6894 62.6242)" fill="var(--fill-0, #E3E2E0)"/>
<circle id="Ellipse 48" cx="89.0806" cy="31.2861" r="3.47624" transform="rotate(180 89.0806 31.2861)" fill="var(--fill-0, #E3E2E0)"/>
<circle id="Ellipse 321" cx="3.47624" cy="3.47624" r="3.47624" transform="matrix(-1 0 0 1 92.5569 55.6719)" fill="var(--fill-0, #E3E2E0)"/>
<circle id="Ellipse 49" cx="96.2131" cy="31.2861" r="3.47624" transform="rotate(180 96.2131 31.2861)" fill="var(--fill-0, #E3E2E0)"/>
<circle id="Ellipse 322" cx="3.47624" cy="3.47624" r="3.47624" transform="matrix(-1 0 0 1 99.6894 55.6719)" fill="var(--fill-0, #E3E2E0)"/>
<circle id="Ellipse 50" cx="103.347" cy="31.2861" r="3.47624" transform="rotate(180 103.347 31.2861)" fill="var(--fill-0, #E3E2E0)"/>
<circle id="Ellipse 323" cx="3.47624" cy="3.47624" r="3.47624" transform="matrix(-1 0 0 1 106.823 55.6719)" fill="var(--fill-0, #E3E2E0)"/>
<circle id="Ellipse 51" cx="3.47624" cy="38.2384" r="3.47624" transform="rotate(180 3.47624 38.2384)" fill="var(--fill-0, #E3E2E0)"/>
<circle id="Ellipse 324" cx="3.47624" cy="3.47624" r="3.47624" transform="matrix(-1 0 0 1 6.95248 48.7199)" fill="var(--fill-0, #E3E2E0)"/>
<circle id="Ellipse 52" cx="10.6089" cy="38.2384" r="3.47624" transform="rotate(180 10.6089 38.2384)" fill="var(--fill-0, #E3E2E0)"/>
<circle id="Ellipse 325" cx="3.47624" cy="3.47624" r="3.47624" transform="matrix(-1 0 0 1 14.0852 48.7199)" fill="var(--fill-0, #E3E2E0)"/>
<circle id="Ellipse 53" cx="17.7427" cy="38.2384" r="3.47624" transform="rotate(180 17.7427 38.2384)" fill="var(--fill-0, #E3E2E0)"/>
<circle id="Ellipse 326" cx="3.47624" cy="3.47624" r="3.47624" transform="matrix(-1 0 0 1 21.219 48.7199)" fill="var(--fill-0, #E3E2E0)"/>
<circle id="Ellipse 54" cx="24.8752" cy="38.2384" r="3.47624" transform="rotate(180 24.8752 38.2384)" fill="var(--fill-0, #E3E2E0)"/>
<circle id="Ellipse 327" cx="3.47624" cy="3.47624" r="3.47624" transform="matrix(-1 0 0 1 28.3515 48.7199)" fill="var(--fill-0, #E3E2E0)"/>
<circle id="Ellipse 55" cx="32.009" cy="38.2384" r="3.47624" transform="rotate(180 32.009 38.2384)" fill="var(--fill-0, #E3E2E0)"/>
<circle id="Ellipse 328" cx="3.47624" cy="3.47624" r="3.47624" transform="matrix(-1 0 0 1 35.4853 48.7199)" fill="var(--fill-0, #E3E2E0)"/>
<circle id="Ellipse 56" cx="39.1441" cy="38.2384" r="3.47624" transform="rotate(180 39.1441 38.2384)" fill="var(--fill-0, #E3E2E0)"/>
<circle id="Ellipse 329" cx="3.47624" cy="3.47624" r="3.47624" transform="matrix(-1 0 0 1 42.6203 48.7199)" fill="var(--fill-0, #E3E2E0)"/>
<circle id="Ellipse 57" cx="46.2779" cy="38.2384" r="3.47624" transform="rotate(180 46.2779 38.2384)" fill="var(--fill-0, #E3E2E0)"/>
<circle id="Ellipse 330" cx="3.47624" cy="3.47624" r="3.47624" transform="matrix(-1 0 0 1 49.7541 48.7199)" fill="var(--fill-0, #E3E2E0)"/>
<circle id="Ellipse 58" cx="53.4117" cy="38.2384" r="3.47624" transform="rotate(180 53.4117 38.2384)" fill="var(--fill-0, #E3E2E0)"/>
<circle id="Ellipse 331" cx="3.47624" cy="3.47624" r="3.47624" transform="matrix(-1 0 0 1 56.8879 48.7199)" fill="var(--fill-0, #E3E2E0)"/>
<circle id="Ellipse 59" cx="60.5442" cy="38.2384" r="3.47624" transform="rotate(180 60.5442 38.2384)" fill="var(--fill-0, #E3E2E0)"/>
<circle id="Ellipse 332" cx="3.47624" cy="3.47624" r="3.47624" transform="matrix(-1 0 0 1 64.0204 48.7199)" fill="var(--fill-0, #E3E2E0)"/>
<circle id="Ellipse 60" cx="67.678" cy="38.2384" r="3.47624" transform="rotate(180 67.678 38.2384)" fill="var(--fill-0, #E3E2E0)"/>
<circle id="Ellipse 333" cx="3.47624" cy="3.47624" r="3.47624" transform="matrix(-1 0 0 1 71.1542 48.7199)" fill="var(--fill-0, #E3E2E0)"/>
<circle id="Ellipse 61" cx="74.8118" cy="38.2384" r="3.47624" transform="rotate(180 74.8118 38.2384)" fill="var(--fill-0, #E3E2E0)"/>
<circle id="Ellipse 334" cx="3.47624" cy="3.47624" r="3.47624" transform="matrix(-1 0 0 1 78.288 48.7199)" fill="var(--fill-0, #E3E2E0)"/>
<circle id="Ellipse 62" cx="81.9455" cy="38.2384" r="3.47624" transform="rotate(180 81.9455 38.2384)" fill="var(--fill-0, #E3E2E0)"/>
<circle id="Ellipse 335" cx="3.47624" cy="3.47624" r="3.47624" transform="matrix(-1 0 0 1 85.4218 48.7199)" fill="var(--fill-0, #E3E2E0)"/>
<circle id="Ellipse 63" cx="89.0806" cy="38.2384" r="3.47624" transform="rotate(180 89.0806 38.2384)" fill="var(--fill-0, #E3E2E0)"/>
<circle id="Ellipse 336" cx="3.47624" cy="3.47624" r="3.47624" transform="matrix(-1 0 0 1 92.5569 48.7199)" fill="var(--fill-0, #E3E2E0)"/>
<circle id="Ellipse 64" cx="96.2131" cy="38.2384" r="3.47624" transform="rotate(180 96.2131 38.2384)" fill="var(--fill-0, #E3E2E0)"/>
<circle id="Ellipse 337" cx="3.47624" cy="3.47624" r="3.47624" transform="matrix(-1 0 0 1 99.6894 48.7199)" fill="var(--fill-0, #E3E2E0)"/>
<circle id="Ellipse 65" cx="103.347" cy="38.2384" r="3.47624" transform="rotate(180 103.347 38.2384)" fill="var(--fill-0, #E3E2E0)"/>
<circle id="Ellipse 338" cx="3.47624" cy="3.47624" r="3.47624" transform="matrix(-1 0 0 1 106.823 48.7199)" fill="var(--fill-0, #E3E2E0)"/>
<circle id="Ellipse 66" cx="110.481" cy="38.2384" r="3.47624" transform="rotate(180 110.481 38.2384)" fill="var(--fill-0, #E3E2E0)"/>
<circle id="Ellipse 339" cx="3.47624" cy="3.47624" r="3.47624" transform="matrix(-1 0 0 1 113.957 48.7199)" fill="var(--fill-0, #E3E2E0)"/>
<circle id="Ellipse 67" cx="3.47624" cy="45.1911" r="3.47624" transform="rotate(180 3.47624 45.1911)" fill="var(--fill-0, #E3E2E0)"/>
<circle id="Ellipse 340" cx="3.47624" cy="3.47624" r="3.47624" transform="matrix(-1 0 0 1 6.95248 41.7669)" fill="var(--fill-0, #E3E2E0)"/>
<circle id="Ellipse 68" cx="10.6089" cy="45.1911" r="3.47624" transform="rotate(180 10.6089 45.1911)" fill="var(--fill-0, #E3E2E0)"/>
<circle id="Ellipse 341" cx="3.47624" cy="3.47624" r="3.47624" transform="matrix(-1 0 0 1 14.0852 41.7669)" fill="var(--fill-0, #E3E2E0)"/>
<circle id="Ellipse 69" cx="17.7427" cy="45.1911" r="3.47624" transform="rotate(180 17.7427 45.1911)" fill="var(--fill-0, #E3E2E0)"/>
<circle id="Ellipse 342" cx="3.47624" cy="3.47624" r="3.47624" transform="matrix(-1 0 0 1 21.219 41.7669)" fill="var(--fill-0, #E3E2E0)"/>
<circle id="Ellipse 70" cx="24.8752" cy="45.1911" r="3.47624" transform="rotate(180 24.8752 45.1911)" fill="var(--fill-0, #E3E2E0)"/>
<circle id="Ellipse 343" cx="3.47624" cy="3.47624" r="3.47624" transform="matrix(-1 0 0 1 28.3515 41.7669)" fill="var(--fill-0, #E3E2E0)"/>
<circle id="Ellipse 71" cx="32.009" cy="45.1911" r="3.47624" transform="rotate(180 32.009 45.1911)" fill="var(--fill-0, #E3E2E0)"/>
<circle id="Ellipse 344" cx="3.47624" cy="3.47624" r="3.47624" transform="matrix(-1 0 0 1 35.4853 41.7669)" fill="var(--fill-0, #E3E2E0)"/>
<circle id="Ellipse 72" cx="39.1441" cy="45.1911" r="3.47624" transform="rotate(180 39.1441 45.1911)" fill="var(--fill-0, #E3E2E0)"/>
<circle id="Ellipse 345" cx="3.47624" cy="3.47624" r="3.47624" transform="matrix(-1 0 0 1 42.6203 41.7669)" fill="var(--fill-0, #E3E2E0)"/>
<circle id="Ellipse 73" cx="46.2779" cy="45.1911" r="3.47624" transform="rotate(180 46.2779 45.1911)" fill="var(--fill-0, #E3E2E0)"/>
<circle id="Ellipse 346" cx="3.47624" cy="3.47624" r="3.47624" transform="matrix(-1 0 0 1 49.7541 41.7669)" fill="var(--fill-0, #E3E2E0)"/>
<circle id="Ellipse 74" cx="53.4117" cy="45.1911" r="3.47624" transform="rotate(180 53.4117 45.1911)" fill="var(--fill-0, #E3E2E0)"/>
<circle id="Ellipse 347" cx="3.47624" cy="3.47624" r="3.47624" transform="matrix(-1 0 0 1 56.8879 41.7669)" fill="var(--fill-0, #E3E2E0)"/>
<circle id="Ellipse 75" cx="60.5442" cy="45.1911" r="3.47624" transform="rotate(180 60.5442 45.1911)" fill="var(--fill-0, #E3E2E0)"/>
<circle id="Ellipse 348" cx="3.47624" cy="3.47624" r="3.47624" transform="matrix(-1 0 0 1 64.0204 41.7669)" fill="var(--fill-0, #E3E2E0)"/>
<circle id="Ellipse 76" cx="67.678" cy="45.1911" r="3.47624" transform="rotate(180 67.678 45.1911)" fill="var(--fill-0, #E3E2E0)"/>
<circle id="Ellipse 349" cx="3.47624" cy="3.47624" r="3.47624" transform="matrix(-1 0 0 1 71.1542 41.7669)" fill="var(--fill-0, #E3E2E0)"/>
<circle id="Ellipse 77" cx="74.8118" cy="45.1911" r="3.47624" transform="rotate(180 74.8118 45.1911)" fill="var(--fill-0, #E3E2E0)"/>
<circle id="Ellipse 350" cx="3.47624" cy="3.47624" r="3.47624" transform="matrix(-1 0 0 1 78.288 41.7669)" fill="var(--fill-0, #E3E2E0)"/>
<circle id="Ellipse 78" cx="81.9455" cy="45.1911" r="3.47624" transform="rotate(180 81.9455 45.1911)" fill="var(--fill-0, #E3E2E0)"/>
<circle id="Ellipse 351" cx="3.47624" cy="3.47624" r="3.47624" transform="matrix(-1 0 0 1 85.4218 41.7669)" fill="var(--fill-0, #E3E2E0)"/>
<circle id="Ellipse 79" cx="89.0806" cy="45.1911" r="3.47624" transform="rotate(180 89.0806 45.1911)" fill="var(--fill-0, #E3E2E0)"/>
<circle id="Ellipse 352" cx="3.47624" cy="3.47624" r="3.47624" transform="matrix(-1 0 0 1 92.5569 41.7669)" fill="var(--fill-0, #E3E2E0)"/>
<circle id="Ellipse 80" cx="96.2131" cy="45.1911" r="3.47624" transform="rotate(180 96.2131 45.1911)" fill="var(--fill-0, #E3E2E0)"/>
<circle id="Ellipse 353" cx="3.47624" cy="3.47624" r="3.47624" transform="matrix(-1 0 0 1 99.6894 41.7669)" fill="var(--fill-0, #E3E2E0)"/>
<circle id="Ellipse 81" cx="103.347" cy="45.1911" r="3.47624" transform="rotate(180 103.347 45.1911)" fill="var(--fill-0, #E3E2E0)"/>
<circle id="Ellipse 354" cx="3.47624" cy="3.47624" r="3.47624" transform="matrix(-1 0 0 1 106.823 41.7669)" fill="var(--fill-0, #E3E2E0)"/>
<circle id="Ellipse 82" cx="110.481" cy="45.1911" r="3.47624" transform="rotate(180 110.481 45.1911)" fill="var(--fill-0, #E3E2E0)"/>
<circle id="Ellipse 355" cx="3.47624" cy="3.47624" r="3.47624" transform="matrix(-1 0 0 1 113.957 41.7669)" fill="var(--fill-0, #E3E2E0)"/>
<circle id="Ellipse 83" cx="117.614" cy="45.1911" r="3.47624" transform="rotate(180 117.614 45.1911)" fill="var(--fill-0, #E3E2E0)"/>
<circle id="Ellipse 356" cx="3.47624" cy="3.47624" r="3.47624" transform="matrix(-1 0 0 1 121.09 41.7669)" fill="var(--fill-0, #E3E2E0)"/>
</g>
</svg>
