<svg width="36" height="36" viewBox="0 0 36 36" fill="none" xmlns="http://www.w3.org/2000/svg">
<path d="M16.125 28.5C16.125 28.5 14.25 28.5 14.25 26.625C14.25 24.75 16.125 19.125 23.625 19.125C31.125 19.125 33 24.75 33 26.625C33 28.5 31.125 28.5 31.125 28.5H16.125ZM23.625 17.25C25.1168 17.25 26.5476 16.6574 27.6025 15.6025C28.6574 14.5476 29.25 13.1168 29.25 11.625C29.25 10.1332 28.6574 8.70242 27.6025 7.64752C26.5476 6.59263 25.1168 6 23.625 6C22.1332 6 20.7024 6.59263 19.6475 7.64752C18.5926 8.70242 18 10.1332 18 11.625C18 13.1168 18.5926 14.5476 19.6475 15.6025C20.7024 16.6574 22.1332 17.25 23.625 17.25ZM12.78 28.5C12.5022 27.9146 12.3636 27.2729 12.375 26.625C12.375 24.0844 13.65 21.4687 16.005 19.65C14.8297 19.2871 13.605 19.1099 12.375 19.125C4.875 19.125 3 24.75 3 26.625C3 28.5 4.875 28.5 4.875 28.5H12.78ZM11.4375 17.25C12.6807 17.25 13.873 16.7561 14.7521 15.8771C15.6311 14.998 16.125 13.8057 16.125 12.5625C16.125 11.3193 15.6311 10.127 14.7521 9.24794C13.873 8.36886 12.6807 7.875 11.4375 7.875C10.1943 7.875 9.00201 8.36886 8.12294 9.24794C7.24386 10.127 6.75 11.3193 6.75 12.5625C6.75 13.8057 7.24386 14.998 8.12294 15.8771C9.00201 16.7561 10.1943 17.25 11.4375 17.25Z" fill="white"/>
</svg>
