<svg width="30" height="30" viewBox="0 0 30 30" fill="none" xmlns="http://www.w3.org/2000/svg">
<path d="M13.4375 23.75C13.4375 23.75 11.875 23.75 11.875 22.1875C11.875 20.625 13.4375 15.9375 19.6875 15.9375C25.9375 15.9375 27.5 20.625 27.5 22.1875C27.5 23.75 25.9375 23.75 25.9375 23.75H13.4375ZM19.6875 14.375C20.9307 14.375 22.123 13.8811 23.0021 13.0021C23.8811 12.123 24.375 10.9307 24.375 9.6875C24.375 8.4443 23.8811 7.25201 23.0021 6.37294C22.123 5.49386 20.9307 5 19.6875 5C18.4443 5 17.252 5.49386 16.3729 6.37294C15.4939 7.25201 15 8.4443 15 9.6875C15 10.9307 15.4939 12.123 16.3729 13.0021C17.252 13.8811 18.4443 14.375 19.6875 14.375ZM10.65 23.75C10.4185 23.2622 10.303 22.7274 10.3125 22.1875C10.3125 20.0703 11.375 17.8906 13.3375 16.375C12.3581 16.0726 11.3375 15.9249 10.3125 15.9375C4.0625 15.9375 2.5 20.625 2.5 22.1875C2.5 23.75 4.0625 23.75 4.0625 23.75H10.65ZM9.53125 14.375C10.5673 14.375 11.5608 13.9634 12.2934 13.2309C13.0259 12.4983 13.4375 11.5048 13.4375 10.4688C13.4375 9.43275 13.0259 8.43918 12.2934 7.70661C11.5608 6.97405 10.5673 6.5625 9.53125 6.5625C8.49525 6.5625 7.50168 6.97405 6.76911 7.70661C6.03655 8.43918 5.625 9.43275 5.625 10.4688C5.625 11.5048 6.03655 12.4983 6.76911 13.2309C7.50168 13.9634 8.49525 14.375 9.53125 14.375Z" fill="#4161FF"/>
</svg>
