<svg preserveAspectRatio="none" width="100%" height="100%" overflow="visible" style="display: block;" viewBox="0 0 47.8168 10.0263" fill="none" xmlns="http://www.w3.org/2000/svg">
<g id="icon">
<ellipse id="Ellipse 52" cx="1.667" cy="1.66694" rx="1.66698" ry="1.66694" transform="rotate(180 1.667 1.66694)" fill="var(--fill-0, #E3E2E0)"/>
<ellipse id="Ellipse 325" cx="1.66698" cy="1.66694" rx="1.66698" ry="1.66694" transform="matrix(-1 0 0 1 3.33398 6.69239)" fill="var(--fill-0, #E3E2E0)"/>
<ellipse id="Ellipse 53" cx="5.08897" cy="1.66694" rx="1.66698" ry="1.66694" transform="rotate(180 5.08897 1.66694)" fill="var(--fill-0, #E3E2E0)"/>
<ellipse id="Ellipse 326" cx="1.66698" cy="1.66694" rx="1.66698" ry="1.66694" transform="matrix(-1 0 0 1 6.75595 6.69239)" fill="var(--fill-0, #E3E2E0)"/>
<ellipse id="Ellipse 54" cx="8.50946" cy="1.66694" rx="1.66698" ry="1.66694" transform="rotate(180 8.50946 1.66694)" fill="var(--fill-0, #E3E2E0)"/>
<ellipse id="Ellipse 327" cx="1.66698" cy="1.66694" rx="1.66698" ry="1.66694" transform="matrix(-1 0 0 1 10.1764 6.69239)" fill="var(--fill-0, #E3E2E0)"/>
<ellipse id="Ellipse 55" cx="11.9317" cy="1.66694" rx="1.66698" ry="1.66694" transform="rotate(180 11.9317 1.66694)" fill="var(--fill-0, #E3E2E0)"/>
<ellipse id="Ellipse 328" cx="1.66698" cy="1.66694" rx="1.66698" ry="1.66694" transform="matrix(-1 0 0 1 13.5986 6.69239)" fill="var(--fill-0, #E3E2E0)"/>
<ellipse id="Ellipse 56" cx="15.3539" cy="1.66694" rx="1.66698" ry="1.66694" transform="rotate(180 15.3539 1.66694)" fill="var(--fill-0, #E3E2E0)"/>
<ellipse id="Ellipse 329" cx="1.66698" cy="1.66694" rx="1.66698" ry="1.66694" transform="matrix(-1 0 0 1 17.0209 6.69239)" fill="var(--fill-0, #E3E2E0)"/>
<ellipse id="Ellipse 57" cx="18.7756" cy="1.66694" rx="1.66698" ry="1.66694" transform="rotate(180 18.7756 1.66694)" fill="var(--fill-0, #E3E2E0)"/>
<ellipse id="Ellipse 330" cx="1.66698" cy="1.66694" rx="1.66698" ry="1.66694" transform="matrix(-1 0 0 1 20.4426 6.69239)" fill="var(--fill-0, #E3E2E0)"/>
<ellipse id="Ellipse 58" cx="22.1985" cy="1.66694" rx="1.66698" ry="1.66694" transform="rotate(180 22.1985 1.66694)" fill="var(--fill-0, #E3E2E0)"/>
<ellipse id="Ellipse 331" cx="1.66698" cy="1.66694" rx="1.66698" ry="1.66694" transform="matrix(-1 0 0 1 23.8655 6.69239)" fill="var(--fill-0, #E3E2E0)"/>
<ellipse id="Ellipse 59" cx="25.6181" cy="1.66694" rx="1.66698" ry="1.66694" transform="rotate(180 25.6181 1.66694)" fill="var(--fill-0, #E3E2E0)"/>
<ellipse id="Ellipse 332" cx="1.66698" cy="1.66694" rx="1.66698" ry="1.66694" transform="matrix(-1 0 0 1 27.285 6.69239)" fill="var(--fill-0, #E3E2E0)"/>
<ellipse id="Ellipse 60" cx="29.0408" cy="1.66694" rx="1.66698" ry="1.66694" transform="rotate(180 29.0408 1.66694)" fill="var(--fill-0, #E3E2E0)"/>
<ellipse id="Ellipse 333" cx="1.66698" cy="1.66694" rx="1.66698" ry="1.66694" transform="matrix(-1 0 0 1 30.7077 6.69239)" fill="var(--fill-0, #E3E2E0)"/>
<ellipse id="Ellipse 61" cx="32.463" cy="1.66694" rx="1.66698" ry="1.66694" transform="rotate(180 32.463 1.66694)" fill="var(--fill-0, #E3E2E0)"/>
<ellipse id="Ellipse 334" cx="1.66698" cy="1.66694" rx="1.66698" ry="1.66694" transform="matrix(-1 0 0 1 34.1299 6.69239)" fill="var(--fill-0, #E3E2E0)"/>
<ellipse id="Ellipse 62" cx="35.8839" cy="1.66694" rx="1.66698" ry="1.66694" transform="rotate(180 35.8839 1.66694)" fill="var(--fill-0, #E3E2E0)"/>
<ellipse id="Ellipse 335" cx="1.66698" cy="1.66694" rx="1.66698" ry="1.66694" transform="matrix(-1 0 0 1 37.5509 6.69239)" fill="var(--fill-0, #E3E2E0)"/>
<ellipse id="Ellipse 63" cx="39.3066" cy="1.66694" rx="1.66698" ry="1.66694" transform="rotate(180 39.3066 1.66694)" fill="var(--fill-0, #E3E2E0)"/>
<ellipse id="Ellipse 336" cx="1.66698" cy="1.66694" rx="1.66698" ry="1.66694" transform="matrix(-1 0 0 1 40.9736 6.69239)" fill="var(--fill-0, #E3E2E0)"/>
<ellipse id="Ellipse 64" cx="42.7267" cy="1.66694" rx="1.66698" ry="1.66694" transform="rotate(180 42.7267 1.66694)" fill="var(--fill-0, #E3E2E0)"/>
<ellipse id="Ellipse 337" cx="1.66698" cy="1.66694" rx="1.66698" ry="1.66694" transform="matrix(-1 0 0 1 44.3936 6.69239)" fill="var(--fill-0, #E3E2E0)"/>
<ellipse id="Ellipse 65" cx="46.1498" cy="1.66694" rx="1.66698" ry="1.66694" transform="rotate(180 46.1498 1.66694)" fill="var(--fill-0, #E3E2E0)"/>
<ellipse id="Ellipse 338" cx="1.66698" cy="1.66694" rx="1.66698" ry="1.66694" transform="matrix(-1 0 0 1 47.8168 6.69239)" fill="var(--fill-0, #E3E2E0)"/>
<ellipse id="Ellipse 68" cx="1.66725" cy="5.00094" rx="1.66698" ry="1.66694" transform="rotate(180 1.66725 5.00094)" fill="var(--fill-0, #E3E2E0)"/>
<ellipse id="Ellipse 341" cx="1.66698" cy="1.66694" rx="1.66698" ry="1.66694" transform="matrix(-1 0 0 1 3.33398 3.35791)" fill="var(--fill-0, #E3E2E0)"/>
<ellipse id="Ellipse 69" cx="5.08921" cy="5.00094" rx="1.66698" ry="1.66694" transform="rotate(180 5.08921 5.00094)" fill="var(--fill-0, #E3E2E0)"/>
<ellipse id="Ellipse 342" cx="1.66698" cy="1.66694" rx="1.66698" ry="1.66694" transform="matrix(-1 0 0 1 6.75595 3.35791)" fill="var(--fill-0, #E3E2E0)"/>
<ellipse id="Ellipse 70" cx="8.5097" cy="5.00094" rx="1.66698" ry="1.66694" transform="rotate(180 8.5097 5.00094)" fill="var(--fill-0, #E3E2E0)"/>
<ellipse id="Ellipse 343" cx="1.66698" cy="1.66694" rx="1.66698" ry="1.66694" transform="matrix(-1 0 0 1 10.1764 3.35791)" fill="var(--fill-0, #E3E2E0)"/>
<ellipse id="Ellipse 71" cx="11.9319" cy="5.00094" rx="1.66698" ry="1.66694" transform="rotate(180 11.9319 5.00094)" fill="var(--fill-0, #E3E2E0)"/>
<ellipse id="Ellipse 344" cx="1.66698" cy="1.66694" rx="1.66698" ry="1.66694" transform="matrix(-1 0 0 1 13.5986 3.35791)" fill="var(--fill-0, #E3E2E0)"/>
<ellipse id="Ellipse 72" cx="15.3541" cy="5.00094" rx="1.66698" ry="1.66694" transform="rotate(180 15.3541 5.00094)" fill="var(--fill-0, #E3E2E0)"/>
<ellipse id="Ellipse 345" cx="1.66698" cy="1.66694" rx="1.66698" ry="1.66694" transform="matrix(-1 0 0 1 17.0209 3.35791)" fill="var(--fill-0, #E3E2E0)"/>
<ellipse id="Ellipse 73" cx="18.7756" cy="5.00094" rx="1.66698" ry="1.66694" transform="rotate(180 18.7756 5.00094)" fill="var(--fill-0, #E3E2E0)"/>
<ellipse id="Ellipse 346" cx="1.66698" cy="1.66694" rx="1.66698" ry="1.66694" transform="matrix(-1 0 0 1 20.4426 3.35791)" fill="var(--fill-0, #E3E2E0)"/>
<ellipse id="Ellipse 74" cx="22.1985" cy="5.00094" rx="1.66698" ry="1.66694" transform="rotate(180 22.1985 5.00094)" fill="var(--fill-0, #E3E2E0)"/>
<ellipse id="Ellipse 347" cx="1.66698" cy="1.66694" rx="1.66698" ry="1.66694" transform="matrix(-1 0 0 1 23.8655 3.35791)" fill="var(--fill-0, #E3E2E0)"/>
<ellipse id="Ellipse 75" cx="25.6181" cy="5.00094" rx="1.66698" ry="1.66694" transform="rotate(180 25.6181 5.00094)" fill="var(--fill-0, #E3E2E0)"/>
<ellipse id="Ellipse 348" cx="1.66698" cy="1.66694" rx="1.66698" ry="1.66694" transform="matrix(-1 0 0 1 27.285 3.35791)" fill="var(--fill-0, #E3E2E0)"/>
<ellipse id="Ellipse 76" cx="29.0408" cy="5.00094" rx="1.66698" ry="1.66694" transform="rotate(180 29.0408 5.00094)" fill="var(--fill-0, #E3E2E0)"/>
<ellipse id="Ellipse 349" cx="1.66698" cy="1.66694" rx="1.66698" ry="1.66694" transform="matrix(-1 0 0 1 30.7077 3.35791)" fill="var(--fill-0, #E3E2E0)"/>
<ellipse id="Ellipse 77" cx="32.463" cy="5.00094" rx="1.66698" ry="1.66694" transform="rotate(180 32.463 5.00094)" fill="var(--fill-0, #E3E2E0)"/>
<ellipse id="Ellipse 350" cx="1.66698" cy="1.66694" rx="1.66698" ry="1.66694" transform="matrix(-1 0 0 1 34.1299 3.35791)" fill="var(--fill-0, #E3E2E0)"/>
<ellipse id="Ellipse 78" cx="35.8839" cy="5.00094" rx="1.66698" ry="1.66694" transform="rotate(180 35.8839 5.00094)" fill="var(--fill-0, #E3E2E0)"/>
<ellipse id="Ellipse 351" cx="1.66698" cy="1.66694" rx="1.66698" ry="1.66694" transform="matrix(-1 0 0 1 37.5509 3.35791)" fill="var(--fill-0, #E3E2E0)"/>
<ellipse id="Ellipse 79" cx="39.3066" cy="5.00094" rx="1.66698" ry="1.66694" transform="rotate(180 39.3066 5.00094)" fill="var(--fill-0, #E3E2E0)"/>
<ellipse id="Ellipse 352" cx="1.66698" cy="1.66694" rx="1.66698" ry="1.66694" transform="matrix(-1 0 0 1 40.9736 3.35791)" fill="var(--fill-0, #E3E2E0)"/>
<ellipse id="Ellipse 80" cx="42.7267" cy="5.00094" rx="1.66698" ry="1.66694" transform="rotate(180 42.7267 5.00094)" fill="var(--fill-0, #E3E2E0)"/>
<ellipse id="Ellipse 353" cx="1.66698" cy="1.66694" rx="1.66698" ry="1.66694" transform="matrix(-1 0 0 1 44.3936 3.35791)" fill="var(--fill-0, #E3E2E0)"/>
<ellipse id="Ellipse 81" cx="46.1498" cy="5.00094" rx="1.66698" ry="1.66694" transform="rotate(180 46.1498 5.00094)" fill="var(--fill-0, #E3E2E0)"/>
<ellipse id="Ellipse 354" cx="1.66698" cy="1.66694" rx="1.66698" ry="1.66694" transform="matrix(-1 0 0 1 47.8168 3.35791)" fill="var(--fill-0, #E3E2E0)"/>
</g>
</svg>
