<svg width="80" height="80" viewBox="0 0 80 80" fill="none" xmlns="http://www.w3.org/2000/svg">
<g clip-path="url(#clip0_2_13137)">
<circle cx="40" cy="40" r="40" fill="#FB4D13"/>
<path d="M56.6128 23.1436C58.6809 21.0614 62.1977 21.2735 64.0142 23.5986V23.5996C65.7098 25.7769 65.5458 28.5174 63.6069 30.4932C61.3293 32.7988 59.0548 35.1074 56.7827 37.4141C54.5105 39.7209 52.2402 42.0254 49.9702 44.3232C45.6546 48.6918 41.3407 53.059 37.0005 57.4121C35.2888 59.1211 32.0576 59.0887 30.271 57.2803C25.9354 52.8781 21.6129 48.435 17.2437 44.0391L17.2417 44.0371L16.8833 43.668C16.084 42.8101 15.5404 41.9745 15.3716 40.9209C15.0336 38.7436 16.0745 36.6076 18.0063 35.5439L18.0083 35.543C19.841 34.529 22.2231 34.7859 23.5601 36.085L23.563 36.0869C25.2527 37.7172 26.8495 39.4007 28.5269 41.0986L28.5298 41.1016C30.0437 42.6206 31.5422 44.1248 33.0542 45.6553L33.7007 46.3096L34.3481 45.6553C37.2049 42.7635 40.0432 39.8763 42.897 37.001L42.8989 36.999C44.6047 35.2723 46.3109 33.549 48.0171 31.8252C49.7232 30.1015 51.4297 28.3769 53.1362 26.6494C54.2915 25.4799 55.4447 24.3125 56.6108 23.1455L56.6128 23.1436Z" fill="white" stroke="white" stroke-width="1.81818"/>
</g>
<defs>
<clipPath id="clip0_2_13137">
<rect width="80" height="80" fill="white"/>
</clipPath>
</defs>
</svg>
