<svg width="30" height="30" viewBox="0 0 30 30" fill="none" xmlns="http://www.w3.org/2000/svg">
<path d="M27.5 15C27.5 21.9037 21.9037 27.5 15 27.5C8.09625 27.5 2.5 21.9037 2.5 15C2.5 8.09625 8.09625 2.5 15 2.5C21.9037 2.5 27.5 8.09625 27.5 15Z" fill="white"/>
<path fill-rule="evenodd" clip-rule="evenodd" d="M15 9.0625C15.2486 9.0625 15.4871 9.16127 15.6629 9.33709C15.8387 9.5129 15.9375 9.75136 15.9375 10V14.6125L18.7875 17.4625C18.8796 17.5483 18.9535 17.6518 19.0047 17.7668C19.056 17.8818 19.0835 18.006 19.0857 18.1318C19.088 18.2577 19.0648 18.3828 19.0177 18.4995C18.9705 18.6162 18.9003 18.7223 18.8113 18.8113C18.7223 18.9003 18.6162 18.9705 18.4995 19.0177C18.3828 19.0648 18.2577 19.088 18.1318 19.0857C18.006 19.0835 17.8818 19.056 17.7668 19.0047C17.6518 18.9535 17.5483 18.8796 17.4625 18.7875L14.3375 15.6625C14.1616 15.4869 14.0627 15.2486 14.0625 15V10C14.0625 9.75136 14.1613 9.5129 14.3371 9.33709C14.5129 9.16127 14.7514 9.0625 15 9.0625Z" fill="#4161FF"/>
</svg>
