<svg width="90" height="90" viewBox="0 0 90 90" fill="none" xmlns="http://www.w3.org/2000/svg">
<rect width="90" height="90" rx="45" fill="#4261FF"/>
<ellipse cx="31.667" cy="67.1499" rx="1.66698" ry="1.66695" transform="rotate(90 31.667 67.1499)" fill="#E3E2E0"/>
<ellipse cx="1.66698" cy="1.66695" rx="1.66698" ry="1.66695" transform="matrix(0 1 1 0 36.6924 65.4829)" fill="#E3E2E0"/>
<ellipse cx="31.667" cy="63.7275" rx="1.66698" ry="1.66695" transform="rotate(90 31.667 63.7275)" fill="#E3E2E0"/>
<ellipse cx="1.66698" cy="1.66695" rx="1.66698" ry="1.66695" transform="matrix(0 1 1 0 36.6924 62.0605)" fill="#E3E2E0"/>
<ellipse cx="31.667" cy="60.3071" rx="1.66698" ry="1.66695" transform="rotate(90 31.667 60.3071)" fill="#E3E2E0"/>
<ellipse cx="1.66698" cy="1.66695" rx="1.66698" ry="1.66695" transform="matrix(0 1 1 0 36.6924 58.6401)" fill="#E3E2E0"/>
<ellipse cx="31.667" cy="56.8848" rx="1.66698" ry="1.66695" transform="rotate(90 31.667 56.8848)" fill="#E3E2E0"/>
<ellipse cx="1.66698" cy="1.66695" rx="1.66698" ry="1.66695" transform="matrix(0 1 1 0 36.6924 55.2178)" fill="#E3E2E0"/>
<ellipse cx="31.667" cy="53.4624" rx="1.66698" ry="1.66695" transform="rotate(90 31.667 53.4624)" fill="#E3E2E0"/>
<ellipse cx="1.66698" cy="1.66695" rx="1.66698" ry="1.66695" transform="matrix(0 1 1 0 36.6924 51.7954)" fill="#E3E2E0"/>
<ellipse cx="31.667" cy="50.041" rx="1.66698" ry="1.66695" transform="rotate(90 31.667 50.041)" fill="#E3E2E0"/>
<ellipse cx="1.66698" cy="1.66695" rx="1.66698" ry="1.66695" transform="matrix(0 1 1 0 36.6924 48.374)" fill="#E3E2E0"/>
<ellipse cx="31.667" cy="46.6181" rx="1.66698" ry="1.66695" transform="rotate(90 31.667 46.6181)" fill="#E3E2E0"/>
<ellipse cx="1.66698" cy="1.66695" rx="1.66698" ry="1.66695" transform="matrix(0 1 1 0 36.6924 44.9512)" fill="#E3E2E0"/>
<ellipse cx="31.667" cy="43.1987" rx="1.66698" ry="1.66695" transform="rotate(90 31.667 43.1987)" fill="#E3E2E0"/>
<ellipse cx="1.66698" cy="1.66695" rx="1.66698" ry="1.66695" transform="matrix(0 1 1 0 36.6924 41.5317)" fill="#E3E2E0"/>
<ellipse cx="31.667" cy="39.7759" rx="1.66698" ry="1.66695" transform="rotate(90 31.667 39.7759)" fill="#E3E2E0"/>
<ellipse cx="1.66698" cy="1.66695" rx="1.66698" ry="1.66695" transform="matrix(0 1 1 0 36.6924 38.1089)" fill="#E3E2E0"/>
<ellipse cx="31.667" cy="36.354" rx="1.66698" ry="1.66695" transform="rotate(90 31.667 36.354)" fill="#E3E2E0"/>
<ellipse cx="1.66698" cy="1.66695" rx="1.66698" ry="1.66695" transform="matrix(0 1 1 0 36.6924 34.687)" fill="#E3E2E0"/>
<ellipse cx="31.667" cy="32.9326" rx="1.66698" ry="1.66695" transform="rotate(90 31.667 32.9326)" fill="#E3E2E0"/>
<ellipse cx="1.66698" cy="1.66695" rx="1.66698" ry="1.66695" transform="matrix(0 1 1 0 36.6924 31.2656)" fill="#E3E2E0"/>
<ellipse cx="31.667" cy="29.5102" rx="1.66698" ry="1.66695" transform="rotate(90 31.667 29.5102)" fill="#E3E2E0"/>
<ellipse cx="1.66698" cy="1.66695" rx="1.66698" ry="1.66695" transform="matrix(0 1 1 0 36.6924 27.8433)" fill="#E3E2E0"/>
<ellipse cx="31.667" cy="26.0903" rx="1.66698" ry="1.66695" transform="rotate(90 31.667 26.0903)" fill="#E3E2E0"/>
<ellipse cx="1.66698" cy="1.66695" rx="1.66698" ry="1.66695" transform="matrix(0 1 1 0 36.6924 24.4233)" fill="#E3E2E0"/>
<ellipse cx="31.667" cy="22.667" rx="1.66698" ry="1.66695" transform="rotate(90 31.667 22.667)" fill="#E3E2E0"/>
<ellipse cx="1.66698" cy="1.66695" rx="1.66698" ry="1.66695" transform="matrix(0 1 1 0 36.6924 21)" fill="#E3E2E0"/>
<ellipse cx="35.001" cy="67.1499" rx="1.66698" ry="1.66695" transform="rotate(90 35.001 67.1499)" fill="#E3E2E0"/>
<ellipse cx="1.66698" cy="1.66695" rx="1.66698" ry="1.66695" transform="matrix(0 1 1 0 33.3579 65.4829)" fill="#E3E2E0"/>
<ellipse cx="35.001" cy="63.7275" rx="1.66698" ry="1.66695" transform="rotate(90 35.001 63.7275)" fill="#E3E2E0"/>
<ellipse cx="1.66698" cy="1.66695" rx="1.66698" ry="1.66695" transform="matrix(0 1 1 0 33.3579 62.0605)" fill="#E3E2E0"/>
<ellipse cx="35.001" cy="60.3071" rx="1.66698" ry="1.66695" transform="rotate(90 35.001 60.3071)" fill="#E3E2E0"/>
<ellipse cx="1.66698" cy="1.66695" rx="1.66698" ry="1.66695" transform="matrix(0 1 1 0 33.3579 58.6401)" fill="#E3E2E0"/>
<ellipse cx="35.001" cy="56.8848" rx="1.66698" ry="1.66695" transform="rotate(90 35.001 56.8848)" fill="#E3E2E0"/>
<ellipse cx="1.66698" cy="1.66695" rx="1.66698" ry="1.66695" transform="matrix(0 1 1 0 33.3579 55.2178)" fill="#E3E2E0"/>
<ellipse cx="35.001" cy="53.4624" rx="1.66698" ry="1.66695" transform="rotate(90 35.001 53.4624)" fill="#E3E2E0"/>
<ellipse cx="1.66698" cy="1.66695" rx="1.66698" ry="1.66695" transform="matrix(0 1 1 0 33.3579 51.7954)" fill="#E3E2E0"/>
<ellipse cx="35.001" cy="50.041" rx="1.66698" ry="1.66695" transform="rotate(90 35.001 50.041)" fill="#E3E2E0"/>
<ellipse cx="1.66698" cy="1.66695" rx="1.66698" ry="1.66695" transform="matrix(0 1 1 0 33.3579 48.374)" fill="#E3E2E0"/>
<ellipse cx="35.001" cy="46.6181" rx="1.66698" ry="1.66695" transform="rotate(90 35.001 46.6181)" fill="#E3E2E0"/>
<ellipse cx="1.66698" cy="1.66695" rx="1.66698" ry="1.66695" transform="matrix(0 1 1 0 33.3579 44.9512)" fill="#E3E2E0"/>
<ellipse cx="35.001" cy="43.1987" rx="1.66698" ry="1.66695" transform="rotate(90 35.001 43.1987)" fill="#E3E2E0"/>
<ellipse cx="1.66698" cy="1.66695" rx="1.66698" ry="1.66695" transform="matrix(0 1 1 0 33.3579 41.5317)" fill="#E3E2E0"/>
<ellipse cx="35.001" cy="39.7759" rx="1.66698" ry="1.66695" transform="rotate(90 35.001 39.7759)" fill="#E3E2E0"/>
<ellipse cx="1.66698" cy="1.66695" rx="1.66698" ry="1.66695" transform="matrix(0 1 1 0 33.3579 38.1089)" fill="#E3E2E0"/>
<ellipse cx="35.001" cy="36.354" rx="1.66698" ry="1.66695" transform="rotate(90 35.001 36.354)" fill="#E3E2E0"/>
<ellipse cx="1.66698" cy="1.66695" rx="1.66698" ry="1.66695" transform="matrix(0 1 1 0 33.3579 34.687)" fill="#E3E2E0"/>
<ellipse cx="35.001" cy="32.9326" rx="1.66698" ry="1.66695" transform="rotate(90 35.001 32.9326)" fill="#E3E2E0"/>
<ellipse cx="1.66698" cy="1.66695" rx="1.66698" ry="1.66695" transform="matrix(0 1 1 0 33.3579 31.2656)" fill="#E3E2E0"/>
<ellipse cx="35.001" cy="29.5102" rx="1.66698" ry="1.66695" transform="rotate(90 35.001 29.5102)" fill="#E3E2E0"/>
<ellipse cx="1.66698" cy="1.66695" rx="1.66698" ry="1.66695" transform="matrix(0 1 1 0 33.3579 27.8433)" fill="#E3E2E0"/>
<ellipse cx="35.001" cy="26.0903" rx="1.66698" ry="1.66695" transform="rotate(90 35.001 26.0903)" fill="#E3E2E0"/>
<ellipse cx="1.66698" cy="1.66695" rx="1.66698" ry="1.66695" transform="matrix(0 1 1 0 33.3579 24.4233)" fill="#E3E2E0"/>
<ellipse cx="35.001" cy="22.667" rx="1.66698" ry="1.66695" transform="rotate(90 35.001 22.667)" fill="#E3E2E0"/>
<ellipse cx="1.66698" cy="1.66695" rx="1.66698" ry="1.66695" transform="matrix(0 1 1 0 33.3579 21)" fill="#E3E2E0"/>
<ellipse cx="51.6407" cy="67.333" rx="1.66698" ry="1.66694" transform="rotate(90 51.6407 67.333)" fill="#E3E2E0"/>
<ellipse cx="1.66698" cy="1.66694" rx="1.66698" ry="1.66694" transform="matrix(0 1 1 0 56.666 65.666)" fill="#E3E2E0"/>
<ellipse cx="51.6407" cy="63.9111" rx="1.66698" ry="1.66694" transform="rotate(90 51.6407 63.9111)" fill="#E3E2E0"/>
<ellipse cx="1.66698" cy="1.66694" rx="1.66698" ry="1.66694" transform="matrix(0 1 1 0 56.666 62.2441)" fill="#E3E2E0"/>
<ellipse cx="51.6407" cy="60.4907" rx="1.66698" ry="1.66694" transform="rotate(90 51.6407 60.4907)" fill="#E3E2E0"/>
<ellipse cx="1.66698" cy="1.66694" rx="1.66698" ry="1.66694" transform="matrix(0 1 1 0 56.666 58.8237)" fill="#E3E2E0"/>
<ellipse cx="51.6407" cy="57.0683" rx="1.66698" ry="1.66694" transform="rotate(90 51.6407 57.0683)" fill="#E3E2E0"/>
<ellipse cx="1.66698" cy="1.66694" rx="1.66698" ry="1.66694" transform="matrix(0 1 1 0 56.666 55.4014)" fill="#E3E2E0"/>
<ellipse cx="51.6407" cy="53.646" rx="1.66698" ry="1.66694" transform="rotate(90 51.6407 53.646)" fill="#E3E2E0"/>
<ellipse cx="1.66698" cy="1.66694" rx="1.66698" ry="1.66694" transform="matrix(0 1 1 0 56.666 51.979)" fill="#E3E2E0"/>
<ellipse cx="51.6407" cy="50.2246" rx="1.66698" ry="1.66694" transform="rotate(90 51.6407 50.2246)" fill="#E3E2E0"/>
<ellipse cx="1.66698" cy="1.66694" rx="1.66698" ry="1.66694" transform="matrix(0 1 1 0 56.666 48.5576)" fill="#E3E2E0"/>
<ellipse cx="51.6407" cy="46.8013" rx="1.66698" ry="1.66694" transform="rotate(90 51.6407 46.8013)" fill="#E3E2E0"/>
<ellipse cx="1.66698" cy="1.66694" rx="1.66698" ry="1.66694" transform="matrix(0 1 1 0 56.666 45.1343)" fill="#E3E2E0"/>
<ellipse cx="51.6407" cy="43.3818" rx="1.66698" ry="1.66694" transform="rotate(90 51.6407 43.3818)" fill="#E3E2E0"/>
<ellipse cx="1.66698" cy="1.66694" rx="1.66698" ry="1.66694" transform="matrix(0 1 1 0 56.666 41.7148)" fill="#E3E2E0"/>
<ellipse cx="51.6407" cy="39.9595" rx="1.66698" ry="1.66694" transform="rotate(90 51.6407 39.9595)" fill="#E3E2E0"/>
<ellipse cx="1.66698" cy="1.66694" rx="1.66698" ry="1.66694" transform="matrix(0 1 1 0 56.666 38.2925)" fill="#E3E2E0"/>
<ellipse cx="51.6407" cy="36.5371" rx="1.66698" ry="1.66694" transform="rotate(90 51.6407 36.5371)" fill="#E3E2E0"/>
<ellipse cx="1.66698" cy="1.66694" rx="1.66698" ry="1.66694" transform="matrix(0 1 1 0 56.666 34.8701)" fill="#E3E2E0"/>
<ellipse cx="51.6407" cy="33.1162" rx="1.66698" ry="1.66694" transform="rotate(90 51.6407 33.1162)" fill="#E3E2E0"/>
<ellipse cx="1.66698" cy="1.66694" rx="1.66698" ry="1.66694" transform="matrix(0 1 1 0 56.666 31.4492)" fill="#E3E2E0"/>
<ellipse cx="51.6407" cy="29.6933" rx="1.66698" ry="1.66694" transform="rotate(90 51.6407 29.6933)" fill="#E3E2E0"/>
<ellipse cx="1.66698" cy="1.66694" rx="1.66698" ry="1.66694" transform="matrix(0 1 1 0 56.666 28.0264)" fill="#E3E2E0"/>
<ellipse cx="51.6407" cy="26.2734" rx="1.66698" ry="1.66694" transform="rotate(90 51.6407 26.2734)" fill="#E3E2E0"/>
<ellipse cx="1.66698" cy="1.66694" rx="1.66698" ry="1.66694" transform="matrix(0 1 1 0 56.666 24.6064)" fill="#E3E2E0"/>
<ellipse cx="51.6407" cy="22.8501" rx="1.66698" ry="1.66694" transform="rotate(90 51.6407 22.8501)" fill="#E3E2E0"/>
<ellipse cx="1.66698" cy="1.66694" rx="1.66698" ry="1.66694" transform="matrix(0 1 1 0 56.666 21.1831)" fill="#E3E2E0"/>
<ellipse cx="54.9747" cy="67.333" rx="1.66698" ry="1.66694" transform="rotate(90 54.9747 67.333)" fill="#E3E2E0"/>
<ellipse cx="1.66698" cy="1.66694" rx="1.66698" ry="1.66694" transform="matrix(0 1 1 0 53.3315 65.666)" fill="#E3E2E0"/>
<ellipse cx="54.9747" cy="63.9106" rx="1.66698" ry="1.66694" transform="rotate(90 54.9747 63.9106)" fill="#E3E2E0"/>
<ellipse cx="1.66698" cy="1.66694" rx="1.66698" ry="1.66694" transform="matrix(0 1 1 0 53.3315 62.2441)" fill="#E3E2E0"/>
<ellipse cx="54.9747" cy="60.4902" rx="1.66698" ry="1.66694" transform="rotate(90 54.9747 60.4902)" fill="#E3E2E0"/>
<ellipse cx="1.66698" cy="1.66694" rx="1.66698" ry="1.66694" transform="matrix(0 1 1 0 53.3315 58.8237)" fill="#E3E2E0"/>
<ellipse cx="54.9747" cy="57.0679" rx="1.66698" ry="1.66694" transform="rotate(90 54.9747 57.0679)" fill="#E3E2E0"/>
<ellipse cx="1.66698" cy="1.66694" rx="1.66698" ry="1.66694" transform="matrix(0 1 1 0 53.3315 55.4014)" fill="#E3E2E0"/>
<ellipse cx="54.9747" cy="53.646" rx="1.66698" ry="1.66694" transform="rotate(90 54.9747 53.646)" fill="#E3E2E0"/>
<ellipse cx="1.66698" cy="1.66694" rx="1.66698" ry="1.66694" transform="matrix(0 1 1 0 53.3315 51.979)" fill="#E3E2E0"/>
<ellipse cx="54.9747" cy="50.2246" rx="1.66698" ry="1.66694" transform="rotate(90 54.9747 50.2246)" fill="#E3E2E0"/>
<ellipse cx="1.66698" cy="1.66694" rx="1.66698" ry="1.66694" transform="matrix(0 1 1 0 53.3315 48.5576)" fill="#E3E2E0"/>
<ellipse cx="54.9747" cy="46.8013" rx="1.66698" ry="1.66694" transform="rotate(90 54.9747 46.8013)" fill="#E3E2E0"/>
<ellipse cx="1.66698" cy="1.66694" rx="1.66698" ry="1.66694" transform="matrix(0 1 1 0 53.3315 45.1343)" fill="#E3E2E0"/>
<ellipse cx="54.9747" cy="43.3818" rx="1.66698" ry="1.66694" transform="rotate(90 54.9747 43.3818)" fill="#E3E2E0"/>
<ellipse cx="1.66698" cy="1.66694" rx="1.66698" ry="1.66694" transform="matrix(0 1 1 0 53.3315 41.7148)" fill="#E3E2E0"/>
<ellipse cx="54.9747" cy="39.9595" rx="1.66698" ry="1.66694" transform="rotate(90 54.9747 39.9595)" fill="#E3E2E0"/>
<ellipse cx="1.66698" cy="1.66694" rx="1.66698" ry="1.66694" transform="matrix(0 1 1 0 53.3315 38.2925)" fill="#E3E2E0"/>
<ellipse cx="54.9747" cy="36.5371" rx="1.66698" ry="1.66694" transform="rotate(90 54.9747 36.5371)" fill="#E3E2E0"/>
<ellipse cx="1.66698" cy="1.66694" rx="1.66698" ry="1.66694" transform="matrix(0 1 1 0 53.3315 34.8701)" fill="#E3E2E0"/>
<ellipse cx="54.9747" cy="33.1162" rx="1.66698" ry="1.66694" transform="rotate(90 54.9747 33.1162)" fill="#E3E2E0"/>
<ellipse cx="1.66698" cy="1.66694" rx="1.66698" ry="1.66694" transform="matrix(0 1 1 0 53.3315 31.4492)" fill="#E3E2E0"/>
<ellipse cx="54.9747" cy="29.6933" rx="1.66698" ry="1.66694" transform="rotate(90 54.9747 29.6933)" fill="#E3E2E0"/>
<ellipse cx="1.66698" cy="1.66694" rx="1.66698" ry="1.66694" transform="matrix(0 1 1 0 53.3315 28.0264)" fill="#E3E2E0"/>
<ellipse cx="54.9747" cy="26.2734" rx="1.66698" ry="1.66694" transform="rotate(90 54.9747 26.2734)" fill="#E3E2E0"/>
<ellipse cx="1.66698" cy="1.66694" rx="1.66698" ry="1.66694" transform="matrix(0 1 1 0 53.3315 24.6064)" fill="#E3E2E0"/>
<ellipse cx="54.9747" cy="22.8501" rx="1.66698" ry="1.66694" transform="rotate(90 54.9747 22.8501)" fill="#E3E2E0"/>
<ellipse cx="1.66698" cy="1.66694" rx="1.66698" ry="1.66694" transform="matrix(0 1 1 0 53.3315 21.1831)" fill="#E3E2E0"/>
</svg>
