<svg width="44" height="44" viewBox="0 0 44 44" fill="none" xmlns="http://www.w3.org/2000/svg">
<g clip-path="url(#clip0_2_13104)">
<circle cx="22" cy="22" r="22" fill="#FB4D13"/>
<path d="M31.1377 12.729C32.2399 11.6196 34.0898 11.6945 35.1123 12.8638L35.208 12.98C36.1404 14.1775 36.0498 15.6844 34.9834 16.771C33.7307 18.039 32.4801 19.309 31.2305 20.5776C29.9807 21.8464 28.7319 23.1146 27.4834 24.3784C25.1101 26.7808 22.7374 29.1818 20.3506 31.5757C19.4093 32.5163 17.6313 32.4993 16.6484 31.5044C14.2641 29.0834 11.8873 26.6398 9.48438 24.2222L9.48242 24.2202C9.00406 23.7421 8.65712 23.2954 8.50684 22.7476L8.45508 22.5063C8.26922 21.3089 8.84091 20.1344 9.90332 19.5493L9.9043 19.5483C10.9123 18.9906 12.2227 19.1326 12.958 19.8472L12.96 19.8481C13.8891 20.7446 14.7671 21.6703 15.6895 22.604L15.6914 22.606C16.524 23.4414 17.3481 24.2691 18.1797 25.1108L18.5352 25.4702L18.8916 25.1108C20.4629 23.5203 22.0241 21.9316 23.5938 20.3501H23.5947C24.5329 19.4005 25.4708 18.4524 26.4092 17.5044C27.3475 16.5564 28.2861 15.6078 29.2246 14.6577C29.8601 14.0145 30.4943 13.3719 31.1357 12.73L31.1377 12.729Z" fill="white" stroke="white"/>
</g>
<defs>
<clipPath id="clip0_2_13104">
<rect width="44" height="44" fill="white"/>
</clipPath>
</defs>
</svg>
