<svg preserveAspectRatio="none" width="100%" height="100%" overflow="visible" style="display: block;" viewBox="0 0 47.8169 10.0264" fill="none" xmlns="http://www.w3.org/2000/svg">
<g id="icon">
<ellipse id="Ellipse 52" cx="1.66699" cy="1.66706" rx="1.66698" ry="1.66695" transform="rotate(180 1.66699 1.66706)" fill="var(--fill-0, #E3E2E0)"/>
<ellipse id="Ellipse 325" cx="1.66698" cy="1.66695" rx="1.66698" ry="1.66695" transform="matrix(-1 0 0 1 3.33397 6.69252)" fill="var(--fill-0, #E3E2E0)"/>
<ellipse id="Ellipse 53" cx="5.08919" cy="1.66706" rx="1.66698" ry="1.66695" transform="rotate(180 5.08919 1.66706)" fill="var(--fill-0, #E3E2E0)"/>
<ellipse id="Ellipse 326" cx="1.66698" cy="1.66695" rx="1.66698" ry="1.66695" transform="matrix(-1 0 0 1 6.75616 6.69252)" fill="var(--fill-0, #E3E2E0)"/>
<ellipse id="Ellipse 54" cx="8.50967" cy="1.66706" rx="1.66698" ry="1.66695" transform="rotate(180 8.50967 1.66706)" fill="var(--fill-0, #E3E2E0)"/>
<ellipse id="Ellipse 327" cx="1.66698" cy="1.66695" rx="1.66698" ry="1.66695" transform="matrix(-1 0 0 1 10.1766 6.69252)" fill="var(--fill-0, #E3E2E0)"/>
<ellipse id="Ellipse 55" cx="11.9321" cy="1.66706" rx="1.66698" ry="1.66695" transform="rotate(180 11.9321 1.66706)" fill="var(--fill-0, #E3E2E0)"/>
<ellipse id="Ellipse 328" cx="1.66698" cy="1.66695" rx="1.66698" ry="1.66695" transform="matrix(-1 0 0 1 13.5991 6.69252)" fill="var(--fill-0, #E3E2E0)"/>
<ellipse id="Ellipse 56" cx="15.3543" cy="1.66706" rx="1.66698" ry="1.66695" transform="rotate(180 15.3543 1.66706)" fill="var(--fill-0, #E3E2E0)"/>
<ellipse id="Ellipse 329" cx="1.66698" cy="1.66695" rx="1.66698" ry="1.66695" transform="matrix(-1 0 0 1 17.0213 6.69252)" fill="var(--fill-0, #E3E2E0)"/>
<ellipse id="Ellipse 57" cx="18.7758" cy="1.66706" rx="1.66698" ry="1.66695" transform="rotate(180 18.7758 1.66706)" fill="var(--fill-0, #E3E2E0)"/>
<ellipse id="Ellipse 330" cx="1.66698" cy="1.66695" rx="1.66698" ry="1.66695" transform="matrix(-1 0 0 1 20.4428 6.69252)" fill="var(--fill-0, #E3E2E0)"/>
<ellipse id="Ellipse 58" cx="22.1987" cy="1.66706" rx="1.66698" ry="1.66695" transform="rotate(180 22.1987 1.66706)" fill="var(--fill-0, #E3E2E0)"/>
<ellipse id="Ellipse 331" cx="1.66698" cy="1.66695" rx="1.66698" ry="1.66695" transform="matrix(-1 0 0 1 23.8657 6.69252)" fill="var(--fill-0, #E3E2E0)"/>
<ellipse id="Ellipse 59" cx="25.618" cy="1.66706" rx="1.66698" ry="1.66695" transform="rotate(180 25.618 1.66706)" fill="var(--fill-0, #E3E2E0)"/>
<ellipse id="Ellipse 332" cx="1.66698" cy="1.66695" rx="1.66698" ry="1.66695" transform="matrix(-1 0 0 1 27.2849 6.69252)" fill="var(--fill-0, #E3E2E0)"/>
<ellipse id="Ellipse 60" cx="29.0409" cy="1.66706" rx="1.66698" ry="1.66695" transform="rotate(180 29.0409 1.66706)" fill="var(--fill-0, #E3E2E0)"/>
<ellipse id="Ellipse 333" cx="1.66698" cy="1.66695" rx="1.66698" ry="1.66695" transform="matrix(-1 0 0 1 30.7079 6.69252)" fill="var(--fill-0, #E3E2E0)"/>
<ellipse id="Ellipse 61" cx="32.4631" cy="1.66706" rx="1.66698" ry="1.66695" transform="rotate(180 32.4631 1.66706)" fill="var(--fill-0, #E3E2E0)"/>
<ellipse id="Ellipse 334" cx="1.66698" cy="1.66695" rx="1.66698" ry="1.66695" transform="matrix(-1 0 0 1 34.1301 6.69252)" fill="var(--fill-0, #E3E2E0)"/>
<ellipse id="Ellipse 62" cx="35.8841" cy="1.66706" rx="1.66698" ry="1.66695" transform="rotate(180 35.8841 1.66706)" fill="var(--fill-0, #E3E2E0)"/>
<ellipse id="Ellipse 335" cx="1.66698" cy="1.66695" rx="1.66698" ry="1.66695" transform="matrix(-1 0 0 1 37.5511 6.69252)" fill="var(--fill-0, #E3E2E0)"/>
<ellipse id="Ellipse 63" cx="39.3068" cy="1.66706" rx="1.66698" ry="1.66695" transform="rotate(180 39.3068 1.66706)" fill="var(--fill-0, #E3E2E0)"/>
<ellipse id="Ellipse 336" cx="1.66698" cy="1.66695" rx="1.66698" ry="1.66695" transform="matrix(-1 0 0 1 40.9737 6.69252)" fill="var(--fill-0, #E3E2E0)"/>
<ellipse id="Ellipse 64" cx="42.7268" cy="1.66706" rx="1.66698" ry="1.66695" transform="rotate(180 42.7268 1.66706)" fill="var(--fill-0, #E3E2E0)"/>
<ellipse id="Ellipse 337" cx="1.66698" cy="1.66695" rx="1.66698" ry="1.66695" transform="matrix(-1 0 0 1 44.3937 6.69252)" fill="var(--fill-0, #E3E2E0)"/>
<ellipse id="Ellipse 65" cx="46.1499" cy="1.66706" rx="1.66698" ry="1.66695" transform="rotate(180 46.1499 1.66706)" fill="var(--fill-0, #E3E2E0)"/>
<ellipse id="Ellipse 338" cx="1.66698" cy="1.66695" rx="1.66698" ry="1.66695" transform="matrix(-1 0 0 1 47.8169 6.69252)" fill="var(--fill-0, #E3E2E0)"/>
<ellipse id="Ellipse 68" cx="1.66699" cy="5.00106" rx="1.66698" ry="1.66695" transform="rotate(180 1.66699 5.00106)" fill="var(--fill-0, #E3E2E0)"/>
<ellipse id="Ellipse 341" cx="1.66698" cy="1.66695" rx="1.66698" ry="1.66695" transform="matrix(-1 0 0 1 3.33397 3.35802)" fill="var(--fill-0, #E3E2E0)"/>
<ellipse id="Ellipse 69" cx="5.08919" cy="5.00106" rx="1.66698" ry="1.66695" transform="rotate(180 5.08919 5.00106)" fill="var(--fill-0, #E3E2E0)"/>
<ellipse id="Ellipse 342" cx="1.66698" cy="1.66695" rx="1.66698" ry="1.66695" transform="matrix(-1 0 0 1 6.75616 3.35802)" fill="var(--fill-0, #E3E2E0)"/>
<ellipse id="Ellipse 70" cx="8.50967" cy="5.00106" rx="1.66698" ry="1.66695" transform="rotate(180 8.50967 5.00106)" fill="var(--fill-0, #E3E2E0)"/>
<ellipse id="Ellipse 343" cx="1.66698" cy="1.66695" rx="1.66698" ry="1.66695" transform="matrix(-1 0 0 1 10.1766 3.35802)" fill="var(--fill-0, #E3E2E0)"/>
<ellipse id="Ellipse 71" cx="11.9321" cy="5.00106" rx="1.66698" ry="1.66695" transform="rotate(180 11.9321 5.00106)" fill="var(--fill-0, #E3E2E0)"/>
<ellipse id="Ellipse 344" cx="1.66698" cy="1.66695" rx="1.66698" ry="1.66695" transform="matrix(-1 0 0 1 13.5991 3.35802)" fill="var(--fill-0, #E3E2E0)"/>
<ellipse id="Ellipse 72" cx="15.3543" cy="5.00106" rx="1.66698" ry="1.66695" transform="rotate(180 15.3543 5.00106)" fill="var(--fill-0, #E3E2E0)"/>
<ellipse id="Ellipse 345" cx="1.66698" cy="1.66695" rx="1.66698" ry="1.66695" transform="matrix(-1 0 0 1 17.0213 3.35802)" fill="var(--fill-0, #E3E2E0)"/>
<ellipse id="Ellipse 73" cx="18.7758" cy="5.00106" rx="1.66698" ry="1.66695" transform="rotate(180 18.7758 5.00106)" fill="var(--fill-0, #E3E2E0)"/>
<ellipse id="Ellipse 346" cx="1.66698" cy="1.66695" rx="1.66698" ry="1.66695" transform="matrix(-1 0 0 1 20.4428 3.35802)" fill="var(--fill-0, #E3E2E0)"/>
<ellipse id="Ellipse 74" cx="22.1987" cy="5.00106" rx="1.66698" ry="1.66695" transform="rotate(180 22.1987 5.00106)" fill="var(--fill-0, #E3E2E0)"/>
<ellipse id="Ellipse 347" cx="1.66698" cy="1.66695" rx="1.66698" ry="1.66695" transform="matrix(-1 0 0 1 23.8657 3.35802)" fill="var(--fill-0, #E3E2E0)"/>
<ellipse id="Ellipse 75" cx="25.618" cy="5.00106" rx="1.66698" ry="1.66695" transform="rotate(180 25.618 5.00106)" fill="var(--fill-0, #E3E2E0)"/>
<ellipse id="Ellipse 348" cx="1.66698" cy="1.66695" rx="1.66698" ry="1.66695" transform="matrix(-1 0 0 1 27.2849 3.35802)" fill="var(--fill-0, #E3E2E0)"/>
<ellipse id="Ellipse 76" cx="29.0409" cy="5.00106" rx="1.66698" ry="1.66695" transform="rotate(180 29.0409 5.00106)" fill="var(--fill-0, #E3E2E0)"/>
<ellipse id="Ellipse 349" cx="1.66698" cy="1.66695" rx="1.66698" ry="1.66695" transform="matrix(-1 0 0 1 30.7079 3.35802)" fill="var(--fill-0, #E3E2E0)"/>
<ellipse id="Ellipse 77" cx="32.4631" cy="5.00106" rx="1.66698" ry="1.66695" transform="rotate(180 32.4631 5.00106)" fill="var(--fill-0, #E3E2E0)"/>
<ellipse id="Ellipse 350" cx="1.66698" cy="1.66695" rx="1.66698" ry="1.66695" transform="matrix(-1 0 0 1 34.1301 3.35802)" fill="var(--fill-0, #E3E2E0)"/>
<ellipse id="Ellipse 78" cx="35.8841" cy="5.00106" rx="1.66698" ry="1.66695" transform="rotate(180 35.8841 5.00106)" fill="var(--fill-0, #E3E2E0)"/>
<ellipse id="Ellipse 351" cx="1.66698" cy="1.66695" rx="1.66698" ry="1.66695" transform="matrix(-1 0 0 1 37.5511 3.35802)" fill="var(--fill-0, #E3E2E0)"/>
<ellipse id="Ellipse 79" cx="39.3068" cy="5.00106" rx="1.66698" ry="1.66695" transform="rotate(180 39.3068 5.00106)" fill="var(--fill-0, #E3E2E0)"/>
<ellipse id="Ellipse 352" cx="1.66698" cy="1.66695" rx="1.66698" ry="1.66695" transform="matrix(-1 0 0 1 40.9737 3.35802)" fill="var(--fill-0, #E3E2E0)"/>
<ellipse id="Ellipse 80" cx="42.7268" cy="5.00106" rx="1.66698" ry="1.66695" transform="rotate(180 42.7268 5.00106)" fill="var(--fill-0, #E3E2E0)"/>
<ellipse id="Ellipse 353" cx="1.66698" cy="1.66695" rx="1.66698" ry="1.66695" transform="matrix(-1 0 0 1 44.3937 3.35802)" fill="var(--fill-0, #E3E2E0)"/>
<ellipse id="Ellipse 81" cx="46.1499" cy="5.00106" rx="1.66698" ry="1.66695" transform="rotate(180 46.1499 5.00106)" fill="var(--fill-0, #E3E2E0)"/>
<ellipse id="Ellipse 354" cx="1.66698" cy="1.66695" rx="1.66698" ry="1.66695" transform="matrix(-1 0 0 1 47.8169 3.35802)" fill="var(--fill-0, #E3E2E0)"/>
</g>
</svg>
