<svg width="44" height="44" viewBox="0 0 44 44" fill="none" xmlns="http://www.w3.org/2000/svg">
<g clip-path="url(#clip0_2_13098)">
<circle cx="22" cy="22" r="22" fill="white"/>
<path d="M18.5355 24.7591C20.1057 23.1697 21.6685 21.5803 23.2386 19.9983C25.1155 18.0984 26.9923 16.206 28.8691 14.3061C29.5045 13.663 30.1399 13.0198 30.7825 12.3767C32.1335 11.0164 34.4194 11.1569 35.6024 12.6724C36.6906 14.0695 36.581 15.8585 35.3395 17.1226C32.8346 19.6582 30.337 22.2013 27.8394 24.7295C25.466 27.132 23.0925 29.5346 20.7045 31.9298C19.5579 33.0756 17.462 33.0386 16.2935 31.8558C13.9055 29.4311 11.5321 26.9916 9.1294 24.5742C8.55977 24.005 8.09238 23.4062 7.96093 22.5857C7.74184 21.1811 8.41371 19.7987 9.66251 19.1112C10.8383 18.4607 12.3938 18.6011 13.3067 19.4882C14.2414 20.3901 15.1324 21.3289 16.0452 22.253C16.8778 23.0884 17.703 23.9163 18.5355 24.7591Z" fill="#4161FF"/>
</g>
<defs>
<clipPath id="clip0_2_13098">
<rect width="44" height="44" fill="white"/>
</clipPath>
</defs>
</svg>
