<svg width="90" height="90" viewBox="0 0 90 90" fill="none" xmlns="http://www.w3.org/2000/svg">
<rect width="90" height="90" rx="45" fill="#4261FF"/>
<path d="M41.0341 26.6371C41.9537 26.6371 42.6991 25.8917 42.6991 24.9721C42.6991 24.0526 41.9537 23.3071 41.0341 23.3071C40.1146 23.3071 39.3691 24.0526 39.3691 24.9721C39.3691 25.8917 40.1146 26.6371 41.0341 26.6371Z" fill="#E3E2E0"/>
<path d="M41.0341 66.6669C41.9537 66.6669 42.6991 65.9215 42.6991 65.0019C42.6991 64.0824 41.9537 63.3369 41.0341 63.3369C40.1146 63.3369 39.3691 64.0824 39.3691 65.0019C39.3691 65.9215 40.1146 66.6669 41.0341 66.6669Z" fill="#E3E2E0"/>
<path d="M37.665 29.9452C38.5846 29.9452 39.33 29.1998 39.33 28.2802C39.33 27.3607 38.5846 26.6152 37.665 26.6152C36.7454 26.6152 36 27.3607 36 28.2802C36 29.1998 36.7454 29.9452 37.665 29.9452Z" fill="#E3E2E0"/>
<path d="M37.665 26.6371C38.5846 26.6371 39.33 25.8917 39.33 24.9721C39.33 24.0526 38.5846 23.3071 37.665 23.3071C36.7454 23.3071 36 24.0526 36 24.9721C36 25.8917 36.7454 26.6371 37.665 26.6371Z" fill="#E3E2E0"/>
<path d="M37.665 23.33C38.5846 23.33 39.33 22.5846 39.33 21.665C39.33 20.7454 38.5846 20 37.665 20C36.7454 20 36 20.7454 36 21.665C36 22.5846 36.7454 23.33 37.665 23.33Z" fill="#E3E2E0"/>
<path d="M37.665 63.3114C38.5846 63.3114 39.33 62.566 39.33 61.6464C39.33 60.7269 38.5846 59.9814 37.665 59.9814C36.7454 59.9814 36 60.7269 36 61.6464C36 62.566 36.7454 63.3114 37.665 63.3114Z" fill="#E3E2E0"/>
<path d="M41.0341 29.9452C41.9537 29.9452 42.6991 29.1998 42.6991 28.2802C42.6991 27.3607 41.9537 26.6152 41.0341 26.6152C40.1146 26.6152 39.3691 27.3607 39.3691 28.2802C39.3691 29.1998 40.1146 29.9452 41.0341 29.9452Z" fill="#E3E2E0"/>
<path d="M41.0341 63.3114C41.9537 63.3114 42.6991 62.566 42.6991 61.6464C42.6991 60.7269 41.9537 59.9814 41.0341 59.9814C40.1146 59.9814 39.3691 60.7269 39.3691 61.6464C39.3691 62.566 40.1146 63.3114 41.0341 63.3114Z" fill="#E3E2E0"/>
<path d="M44.4028 29.9452C45.3223 29.9452 46.0678 29.1998 46.0678 28.2802C46.0678 27.3607 45.3223 26.6152 44.4028 26.6152C43.4832 26.6152 42.7378 27.3607 42.7378 28.2802C42.7378 29.1998 43.4832 29.9452 44.4028 29.9452Z" fill="#E3E2E0"/>
<path d="M44.4028 63.3114C45.3223 63.3114 46.0678 62.566 46.0678 61.6464C46.0678 60.7269 45.3223 59.9814 44.4028 59.9814C43.4832 59.9814 42.7378 60.7269 42.7378 61.6464C42.7378 62.566 43.4832 63.3114 44.4028 63.3114Z" fill="#E3E2E0"/>
<path d="M41.0341 33.3012C41.9537 33.3012 42.6991 32.5557 42.6991 31.6362C42.6991 30.7166 41.9537 29.9712 41.0341 29.9712C40.1146 29.9712 39.3691 30.7166 39.3691 31.6362C39.3691 32.5557 40.1146 33.3012 41.0341 33.3012Z" fill="#E3E2E0"/>
<path d="M41.0341 60.0033C41.9537 60.0033 42.6991 59.2579 42.6991 58.3383C42.6991 57.4188 41.9537 56.6733 41.0341 56.6733C40.1146 56.6733 39.3691 57.4188 39.3691 58.3383C39.3691 59.2579 40.1146 60.0033 41.0341 60.0033Z" fill="#E3E2E0"/>
<path d="M44.4028 33.3012C45.3223 33.3012 46.0678 32.5557 46.0678 31.6362C46.0678 30.7166 45.3223 29.9712 44.4028 29.9712C43.4832 29.9712 42.7378 30.7166 42.7378 31.6362C42.7378 32.5557 43.4832 33.3012 44.4028 33.3012Z" fill="#E3E2E0"/>
<path d="M44.4028 60.0033C45.3223 60.0033 46.0678 59.2579 46.0678 58.3383C46.0678 57.4188 45.3223 56.6733 44.4028 56.6733C43.4832 56.6733 42.7378 57.4188 42.7378 58.3383C42.7378 59.2579 43.4832 60.0033 44.4028 60.0033Z" fill="#E3E2E0"/>
<path d="M47.8198 33.3012C48.7393 33.3012 49.4848 32.5557 49.4848 31.6362C49.4848 30.7166 48.7393 29.9712 47.8198 29.9712C46.9002 29.9712 46.1548 30.7166 46.1548 31.6362C46.1548 32.5557 46.9002 33.3012 47.8198 33.3012Z" fill="#E3E2E0"/>
<path d="M47.8198 60.0033C48.7393 60.0033 49.4848 59.2579 49.4848 58.3383C49.4848 57.4188 48.7393 56.6733 47.8198 56.6733C46.9002 56.6733 46.1548 57.4188 46.1548 58.3383C46.1548 59.2579 46.9002 60.0033 47.8198 60.0033Z" fill="#E3E2E0"/>
<path d="M44.4028 36.6093C45.3223 36.6093 46.0678 35.8639 46.0678 34.9443C46.0678 34.0247 45.3223 33.2793 44.4028 33.2793C43.4832 33.2793 42.7378 34.0247 42.7378 34.9443C42.7378 35.8639 43.4832 36.6093 44.4028 36.6093Z" fill="#E3E2E0"/>
<path d="M44.4028 56.6474C45.3223 56.6474 46.0678 55.9019 46.0678 54.9824C46.0678 54.0628 45.3223 53.3174 44.4028 53.3174C43.4832 53.3174 42.7378 54.0628 42.7378 54.9824C42.7378 55.9019 43.4832 56.6474 44.4028 56.6474Z" fill="#E3E2E0"/>
<path d="M47.8198 36.6093C48.7393 36.6093 49.4848 35.8639 49.4848 34.9443C49.4848 34.0247 48.7393 33.2793 47.8198 33.2793C46.9002 33.2793 46.1548 34.0247 46.1548 34.9443C46.1548 35.8639 46.9002 36.6093 47.8198 36.6093Z" fill="#E3E2E0"/>
<path d="M47.8198 56.6474C48.7393 56.6474 49.4848 55.9019 49.4848 54.9824C49.4848 54.0628 48.7393 53.3174 47.8198 53.3174C46.9002 53.3174 46.1548 54.0628 46.1548 54.9824C46.1548 55.9019 46.9002 56.6474 47.8198 56.6474Z" fill="#E3E2E0"/>
<path d="M51.1884 36.6093C52.108 36.6093 52.8534 35.8639 52.8534 34.9443C52.8534 34.0247 52.108 33.2793 51.1884 33.2793C50.2689 33.2793 49.5234 34.0247 49.5234 34.9443C49.5234 35.8639 50.2689 36.6093 51.1884 36.6093Z" fill="#E3E2E0"/>
<path d="M51.1884 56.6474C52.108 56.6474 52.8534 55.9019 52.8534 54.9824C52.8534 54.0628 52.108 53.3174 51.1884 53.3174C50.2689 53.3174 49.5234 54.0628 49.5234 54.9824C49.5234 55.9019 50.2689 56.6474 51.1884 56.6474Z" fill="#E3E2E0"/>
<path d="M47.8198 39.9648C48.7393 39.9648 49.4848 39.2193 49.4848 38.2998C49.4848 37.3802 48.7393 36.6348 47.8198 36.6348C46.9002 36.6348 46.1548 37.3802 46.1548 38.2998C46.1548 39.2193 46.9002 39.9648 47.8198 39.9648Z" fill="#E3E2E0"/>
<path d="M47.8198 53.3393C48.7393 53.3393 49.4848 52.5938 49.4848 51.6743C49.4848 50.7547 48.7393 50.0093 47.8198 50.0093C46.9002 50.0093 46.1548 50.7547 46.1548 51.6743C46.1548 52.5938 46.9002 53.3393 47.8198 53.3393Z" fill="#E3E2E0"/>
<path d="M51.1884 39.9648C52.108 39.9648 52.8534 39.2193 52.8534 38.2998C52.8534 37.3802 52.108 36.6348 51.1884 36.6348C50.2689 36.6348 49.5234 37.3802 49.5234 38.2998C49.5234 39.2193 50.2689 39.9648 51.1884 39.9648Z" fill="#E3E2E0"/>
<path d="M51.1884 53.3393C52.108 53.3393 52.8534 52.5938 52.8534 51.6743C52.8534 50.7547 52.108 50.0093 51.1884 50.0093C50.2689 50.0093 49.5234 50.7547 49.5234 51.6743C49.5234 52.5938 50.2689 53.3393 51.1884 53.3393Z" fill="#E3E2E0"/>
<path d="M54.5581 39.9648C55.4776 39.9648 56.2231 39.2193 56.2231 38.2998C56.2231 37.3802 55.4776 36.6348 54.5581 36.6348C53.6385 36.6348 52.8931 37.3802 52.8931 38.2998C52.8931 39.2193 53.6385 39.9648 54.5581 39.9648Z" fill="#E3E2E0"/>
<path d="M54.5581 53.3393C55.4776 53.3393 56.2231 52.5938 56.2231 51.6743C56.2231 50.7547 55.4776 50.0093 54.5581 50.0093C53.6385 50.0093 52.8931 50.7547 52.8931 51.6743C52.8931 52.5938 53.6385 53.3393 54.5581 53.3393Z" fill="#E3E2E0"/>
<path d="M37.665 43.2724C38.5846 43.2724 39.33 42.5269 39.33 41.6074C39.33 40.6878 38.5846 39.9424 37.665 39.9424C36.7454 39.9424 36 40.6878 36 41.6074C36 42.5269 36.7454 43.2724 37.665 43.2724Z" fill="#E3E2E0"/>
<path d="M37.665 49.9838C38.5846 49.9838 39.33 49.2384 39.33 48.3188C39.33 47.3993 38.5846 46.6538 37.665 46.6538C36.7454 46.6538 36 47.3993 36 48.3188C36 49.2384 36.7454 49.9838 37.665 49.9838Z" fill="#E3E2E0"/>
<path d="M41.0341 43.2724C41.9537 43.2724 42.6991 42.5269 42.6991 41.6074C42.6991 40.6878 41.9537 39.9424 41.0341 39.9424C40.1146 39.9424 39.3691 40.6878 39.3691 41.6074C39.3691 42.5269 40.1146 43.2724 41.0341 43.2724Z" fill="#E3E2E0"/>
<path d="M37.665 39.9169C38.5846 39.9169 39.33 39.1715 39.33 38.2519C39.33 37.3324 38.5846 36.5869 37.665 36.5869C36.7454 36.5869 36 37.3324 36 38.2519C36 39.1715 36.7454 39.9169 37.665 39.9169Z" fill="#E3E2E0"/>
<path d="M41.0341 39.9169C41.9537 39.9169 42.6991 39.1715 42.6991 38.2519C42.6991 37.3324 41.9537 36.5869 41.0341 36.5869C40.1146 36.5869 39.3691 37.3324 39.3691 38.2519C39.3691 39.1715 40.1146 39.9169 41.0341 39.9169Z" fill="#E3E2E0"/>
<path d="M37.665 36.6093C38.5846 36.6093 39.33 35.8639 39.33 34.9443C39.33 34.0247 38.5846 33.2793 37.665 33.2793C36.7454 33.2793 36 34.0247 36 34.9443C36 35.8639 36.7454 36.6093 37.665 36.6093Z" fill="#E3E2E0"/>
<path d="M41.0341 36.6093C41.9537 36.6093 42.6991 35.8639 42.6991 34.9443C42.6991 34.0247 41.9537 33.2793 41.0341 33.2793C40.1146 33.2793 39.3691 34.0247 39.3691 34.9443C39.3691 35.8639 40.1146 36.6093 41.0341 36.6093Z" fill="#E3E2E0"/>
<path d="M37.665 33.2529C38.5846 33.2529 39.33 32.5074 39.33 31.5879C39.33 30.6683 38.5846 29.9229 37.665 29.9229C36.7454 29.9229 36 30.6683 36 31.5879C36 32.5074 36.7454 33.2529 37.665 33.2529Z" fill="#E3E2E0"/>
<path d="M41.0341 33.2529C41.9537 33.2529 42.6991 32.5074 42.6991 31.5879C42.6991 30.6683 41.9537 29.9229 41.0341 29.9229C40.1146 29.9229 39.3691 30.6683 39.3691 31.5879C39.3691 32.5074 40.1146 33.2529 41.0341 33.2529Z" fill="#E3E2E0"/>
<path d="M41.0341 49.9838C41.9537 49.9838 42.6991 49.2384 42.6991 48.3188C42.6991 47.3993 41.9537 46.6538 41.0341 46.6538C40.1146 46.6538 39.3691 47.3993 39.3691 48.3188C39.3691 49.2384 40.1146 49.9838 41.0341 49.9838Z" fill="#E3E2E0"/>
<path d="M44.4028 43.2724C45.3223 43.2724 46.0678 42.5269 46.0678 41.6074C46.0678 40.6878 45.3223 39.9424 44.4028 39.9424C43.4832 39.9424 42.7378 40.6878 42.7378 41.6074C42.7378 42.5269 43.4832 43.2724 44.4028 43.2724Z" fill="#E3E2E0"/>
<path d="M44.4028 39.9648C45.3223 39.9648 46.0678 39.2193 46.0678 38.2998C46.0678 37.3802 45.3223 36.6348 44.4028 36.6348C43.4832 36.6348 42.7378 37.3802 42.7378 38.2998C42.7378 39.2193 43.4832 39.9648 44.4028 39.9648Z" fill="#E3E2E0"/>
<path d="M44.4028 49.9838C45.3223 49.9838 46.0678 49.2384 46.0678 48.3188C46.0678 47.3993 45.3223 46.6538 44.4028 46.6538C43.4832 46.6538 42.7378 47.3993 42.7378 48.3188C42.7378 49.2384 43.4832 49.9838 44.4028 49.9838Z" fill="#E3E2E0"/>
<path d="M37.665 53.3393C38.5846 53.3393 39.33 52.5938 39.33 51.6743C39.33 50.7547 38.5846 50.0093 37.665 50.0093C36.7454 50.0093 36 50.7547 36 51.6743C36 52.5938 36.7454 53.3393 37.665 53.3393Z" fill="#E3E2E0"/>
<path d="M41.0341 53.3393C41.9537 53.3393 42.6991 52.5938 42.6991 51.6743C42.6991 50.7547 41.9537 50.0093 41.0341 50.0093C40.1146 50.0093 39.3691 50.7547 39.3691 51.6743C39.3691 52.5938 40.1146 53.3393 41.0341 53.3393Z" fill="#E3E2E0"/>
<path d="M44.4028 53.3393C45.3223 53.3393 46.0678 52.5938 46.0678 51.6743C46.0678 50.7547 45.3223 50.0093 44.4028 50.0093C43.4832 50.0093 42.7378 50.7547 42.7378 51.6743C42.7378 52.5938 43.4832 53.3393 44.4028 53.3393Z" fill="#E3E2E0"/>
<path d="M37.665 56.6474C38.5846 56.6474 39.33 55.9019 39.33 54.9824C39.33 54.0628 38.5846 53.3174 37.665 53.3174C36.7454 53.3174 36 54.0628 36 54.9824C36 55.9019 36.7454 56.6474 37.665 56.6474Z" fill="#E3E2E0"/>
<path d="M41.0341 56.6474C41.9537 56.6474 42.6991 55.9019 42.6991 54.9824C42.6991 54.0628 41.9537 53.3174 41.0341 53.3174C40.1146 53.3174 39.3691 54.0628 39.3691 54.9824C39.3691 55.9019 40.1146 56.6474 41.0341 56.6474Z" fill="#E3E2E0"/>
<path d="M44.4028 56.6474C45.3223 56.6474 46.0678 55.9019 46.0678 54.9824C46.0678 54.0628 45.3223 53.3174 44.4028 53.3174C43.4832 53.3174 42.7378 54.0628 42.7378 54.9824C42.7378 55.9019 43.4832 56.6474 44.4028 56.6474Z" fill="#E3E2E0"/>
<path d="M37.665 60.0033C38.5846 60.0033 39.33 59.2579 39.33 58.3383C39.33 57.4188 38.5846 56.6733 37.665 56.6733C36.7454 56.6733 36 57.4188 36 58.3383C36 59.2579 36.7454 60.0033 37.665 60.0033Z" fill="#E3E2E0"/>
<path d="M37.665 69.974C38.5846 69.974 39.33 69.2286 39.33 68.309C39.33 67.3895 38.5846 66.644 37.665 66.644C36.7454 66.644 36 67.3895 36 68.309C36 69.2286 36.7454 69.974 37.665 69.974Z" fill="#E3E2E0"/>
<path d="M37.665 66.6669C38.5846 66.6669 39.33 65.9215 39.33 65.0019C39.33 64.0824 38.5846 63.3369 37.665 63.3369C36.7454 63.3369 36 64.0824 36 65.0019C36 65.9215 36.7454 66.6669 37.665 66.6669Z" fill="#E3E2E0"/>
<path d="M41.0341 60.0033C41.9537 60.0033 42.6991 59.2579 42.6991 58.3383C42.6991 57.4188 41.9537 56.6733 41.0341 56.6733C40.1146 56.6733 39.3691 57.4188 39.3691 58.3383C39.3691 59.2579 40.1146 60.0033 41.0341 60.0033Z" fill="#E3E2E0"/>
<path d="M44.4028 60.0033C45.3223 60.0033 46.0678 59.2579 46.0678 58.3383C46.0678 57.4188 45.3223 56.6733 44.4028 56.6733C43.4832 56.6733 42.7378 57.4188 42.7378 58.3383C42.7378 59.2579 43.4832 60.0033 44.4028 60.0033Z" fill="#E3E2E0"/>
<path d="M47.8198 43.2724C48.7393 43.2724 49.4848 42.5269 49.4848 41.6074C49.4848 40.6878 48.7393 39.9424 47.8198 39.9424C46.9002 39.9424 46.1548 40.6878 46.1548 41.6074C46.1548 42.5269 46.9002 43.2724 47.8198 43.2724Z" fill="#E3E2E0"/>
<path d="M47.8198 49.9838C48.7393 49.9838 49.4848 49.2384 49.4848 48.3188C49.4848 47.3993 48.7393 46.6538 47.8198 46.6538C46.9002 46.6538 46.1548 47.3993 46.1548 48.3188C46.1548 49.2384 46.9002 49.9838 47.8198 49.9838Z" fill="#E3E2E0"/>
<path d="M51.1884 43.2724C52.108 43.2724 52.8534 42.5269 52.8534 41.6074C52.8534 40.6878 52.108 39.9424 51.1884 39.9424C50.2689 39.9424 49.5234 40.6878 49.5234 41.6074C49.5234 42.5269 50.2689 43.2724 51.1884 43.2724Z" fill="#E3E2E0"/>
<path d="M51.1884 49.9838C52.108 49.9838 52.8534 49.2384 52.8534 48.3188C52.8534 47.3993 52.108 46.6538 51.1884 46.6538C50.2689 46.6538 49.5234 47.3993 49.5234 48.3188C49.5234 49.2384 50.2689 49.9838 51.1884 49.9838Z" fill="#E3E2E0"/>
<path d="M54.5581 43.2724C55.4776 43.2724 56.2231 42.5269 56.2231 41.6074C56.2231 40.6878 55.4776 39.9424 54.5581 39.9424C53.6385 39.9424 52.8931 40.6878 52.8931 41.6074C52.8931 42.5269 53.6385 43.2724 54.5581 43.2724Z" fill="#E3E2E0"/>
<path d="M54.5581 49.9838C55.4776 49.9838 56.2231 49.2384 56.2231 48.3188C56.2231 47.3993 55.4776 46.6538 54.5581 46.6538C53.6385 46.6538 52.8931 47.3993 52.8931 48.3188C52.8931 49.2384 53.6385 49.9838 54.5581 49.9838Z" fill="#E3E2E0"/>
<path d="M57.9746 43.2724C58.8941 43.2724 59.6396 42.5269 59.6396 41.6074C59.6396 40.6878 58.8941 39.9424 57.9746 39.9424C57.055 39.9424 56.3096 40.6878 56.3096 41.6074C56.3096 42.5269 57.055 43.2724 57.9746 43.2724Z" fill="#E3E2E0"/>
<path d="M57.9746 49.9838C58.8941 49.9838 59.6396 49.2384 59.6396 48.3188C59.6396 47.3993 58.8941 46.6538 57.9746 46.6538C57.055 46.6538 56.3096 47.3993 56.3096 48.3188C56.3096 49.2384 57.055 49.9838 57.9746 49.9838Z" fill="#E3E2E0"/>
<path d="M37.665 46.6279C38.5846 46.6279 39.33 45.8824 39.33 44.9629C39.33 44.0433 38.5846 43.2979 37.665 43.2979C36.7454 43.2979 36 44.0433 36 44.9629C36 45.8824 36.7454 46.6279 37.665 46.6279Z" fill="#E3E2E0"/>
<path d="M37.665 46.6762C38.5846 46.6762 39.33 45.9307 39.33 45.0112C39.33 44.0916 38.5846 43.3462 37.665 43.3462C36.7454 43.3462 36 44.0916 36 45.0112C36 45.9307 36.7454 46.6762 37.665 46.6762Z" fill="#E3E2E0"/>
<path d="M41.0341 46.6279C41.9537 46.6279 42.6991 45.8824 42.6991 44.9629C42.6991 44.0433 41.9537 43.2979 41.0341 43.2979C40.1146 43.2979 39.3691 44.0433 39.3691 44.9629C39.3691 45.8824 40.1146 46.6279 41.0341 46.6279Z" fill="#E3E2E0"/>
<path d="M41.0341 46.6762C41.9537 46.6762 42.6991 45.9307 42.6991 45.0112C42.6991 44.0916 41.9537 43.3462 41.0341 43.3462C40.1146 43.3462 39.3691 44.0916 39.3691 45.0112C39.3691 45.9307 40.1146 46.6762 41.0341 46.6762Z" fill="#E3E2E0"/>
<path d="M44.4028 46.6279C45.3223 46.6279 46.0678 45.8824 46.0678 44.9629C46.0678 44.0433 45.3223 43.2979 44.4028 43.2979C43.4832 43.2979 42.7378 44.0433 42.7378 44.9629C42.7378 45.8824 43.4832 46.6279 44.4028 46.6279Z" fill="#E3E2E0"/>
<path d="M44.4028 46.6762C45.3223 46.6762 46.0678 45.9307 46.0678 45.0112C46.0678 44.0916 45.3223 43.3462 44.4028 43.3462C43.4832 43.3462 42.7378 44.0916 42.7378 45.0112C42.7378 45.9307 43.4832 46.6762 44.4028 46.6762Z" fill="#E3E2E0"/>
<path d="M47.8198 46.6279C48.7393 46.6279 49.4848 45.8824 49.4848 44.9629C49.4848 44.0433 48.7393 43.2979 47.8198 43.2979C46.9002 43.2979 46.1548 44.0433 46.1548 44.9629C46.1548 45.8824 46.9002 46.6279 47.8198 46.6279Z" fill="#E3E2E0"/>
<path d="M47.8198 46.6762C48.7393 46.6762 49.4848 45.9307 49.4848 45.0112C49.4848 44.0916 48.7393 43.3462 47.8198 43.3462C46.9002 43.3462 46.1548 44.0916 46.1548 45.0112C46.1548 45.9307 46.9002 46.6762 47.8198 46.6762Z" fill="#E3E2E0"/>
<path d="M51.1884 46.6279C52.108 46.6279 52.8534 45.8824 52.8534 44.9629C52.8534 44.0433 52.108 43.2979 51.1884 43.2979C50.2689 43.2979 49.5234 44.0433 49.5234 44.9629C49.5234 45.8824 50.2689 46.6279 51.1884 46.6279Z" fill="#E3E2E0"/>
<path d="M51.1884 46.6762C52.108 46.6762 52.8534 45.9307 52.8534 45.0112C52.8534 44.0916 52.108 43.3462 51.1884 43.3462C50.2689 43.3462 49.5234 44.0916 49.5234 45.0112C49.5234 45.9307 50.2689 46.6762 51.1884 46.6762Z" fill="#E3E2E0"/>
<path d="M54.5581 46.6279C55.4776 46.6279 56.2231 45.8824 56.2231 44.9629C56.2231 44.0433 55.4776 43.2979 54.5581 43.2979C53.6385 43.2979 52.8931 44.0433 52.8931 44.9629C52.8931 45.8824 53.6385 46.6279 54.5581 46.6279Z" fill="#E3E2E0"/>
<path d="M54.5581 46.6762C55.4776 46.6762 56.2231 45.9307 56.2231 45.0112C56.2231 44.0916 55.4776 43.3462 54.5581 43.3462C53.6385 43.3462 52.8931 44.0916 52.8931 45.0112C52.8931 45.9307 53.6385 46.6762 54.5581 46.6762Z" fill="#E3E2E0"/>
<path d="M57.9746 46.6279C58.8941 46.6279 59.6396 45.8824 59.6396 44.9629C59.6396 44.0433 58.8941 43.2979 57.9746 43.2979C57.055 43.2979 56.3096 44.0433 56.3096 44.9629C56.3096 45.8824 57.055 46.6279 57.9746 46.6279Z" fill="#E3E2E0"/>
<path d="M57.9746 46.6762C58.8941 46.6762 59.6396 45.9307 59.6396 45.0112C59.6396 44.0916 58.8941 43.3462 57.9746 43.3462C57.055 43.3462 56.3096 44.0916 56.3096 45.0112C56.3096 45.9307 57.055 46.6762 57.9746 46.6762Z" fill="#E3E2E0"/>
<path d="M61.3437 46.6279C62.2633 46.6279 63.0087 45.8824 63.0087 44.9629C63.0087 44.0433 62.2633 43.2979 61.3437 43.2979C60.4242 43.2979 59.6787 44.0433 59.6787 44.9629C59.6787 45.8824 60.4242 46.6279 61.3437 46.6279Z" fill="#E3E2E0"/>
<path d="M61.3437 46.6762C62.2633 46.6762 63.0087 45.9307 63.0087 45.0112C63.0087 44.0916 62.2633 43.3462 61.3437 43.3462C60.4242 43.3462 59.6787 44.0916 59.6787 45.0112C59.6787 45.9307 60.4242 46.6762 61.3437 46.6762Z" fill="#E3E2E0"/>
</svg>
