<svg width="150" height="150" viewBox="0 0 150 150" fill="none" xmlns="http://www.w3.org/2000/svg">
<rect width="150" height="150" rx="75" transform="matrix(-1 0 0 1 150 0)" fill="#E3E2E0"/>
<circle cx="3.47624" cy="3.47624" r="3.47624" transform="matrix(1 0 0 -1 57.123 36.8438)" fill="#4161FF"/>
<circle cx="60.5993" cy="116.849" r="3.47624" fill="#4161FF"/>
<circle cx="3.47624" cy="3.47624" r="3.47624" transform="matrix(1 0 0 -1 64.2559 43.7959)" fill="#4161FF"/>
<circle cx="67.7321" cy="109.897" r="3.47624" fill="#4161FF"/>
<circle cx="3.47624" cy="3.47624" r="3.47624" transform="matrix(1 0 0 -1 57.123 43.7959)" fill="#4161FF"/>
<circle cx="60.5993" cy="109.897" r="3.47624" fill="#4161FF"/>
<circle cx="3.47624" cy="3.47624" r="3.47624" transform="matrix(1 0 0 -1 49.9883 43.7959)" fill="#4161FF"/>
<circle cx="53.4645" cy="109.897" r="3.47624" fill="#4161FF"/>
<circle cx="3.47624" cy="3.47624" r="3.47624" transform="matrix(1 0 0 -1 57.123 50.748)" fill="#4161FF"/>
<circle cx="60.5993" cy="102.945" r="3.47624" fill="#4161FF"/>
<circle cx="3.47624" cy="3.47624" r="3.47624" transform="matrix(1 0 0 -1 49.9883 50.748)" fill="#4161FF"/>
<circle cx="53.4645" cy="102.945" r="3.47624" fill="#4161FF"/>
<circle cx="3.47624" cy="3.47624" r="3.47624" transform="matrix(1 0 0 -1 42.8535 50.748)" fill="#4161FF"/>
<circle cx="46.3298" cy="102.945" r="3.47624" fill="#4161FF"/>
<circle cx="3.47624" cy="3.47624" r="3.47624" transform="matrix(1 0 0 -1 49.9883 57.7007)" fill="#4161FF"/>
<circle cx="53.4645" cy="95.9914" r="3.47624" fill="#4161FF"/>
<circle cx="3.47624" cy="3.47624" r="3.47624" transform="matrix(1 0 0 -1 42.8535 57.7007)" fill="#4161FF"/>
<circle cx="46.3298" cy="95.9914" r="3.47624" fill="#4161FF"/>
<circle cx="3.47624" cy="3.47624" r="3.47624" transform="matrix(1 0 0 -1 35.7207 57.7007)" fill="#4161FF"/>
<circle cx="39.1969" cy="95.9914" r="3.47624" fill="#4161FF"/>
<circle cx="3.47624" cy="3.47624" r="3.47624" transform="matrix(1 0 0 -1 42.8535 64.6533)" fill="#4161FF"/>
<circle cx="46.3298" cy="89.0392" r="3.47624" fill="#4161FF"/>
<circle cx="3.47624" cy="3.47624" r="3.47624" transform="matrix(1 0 0 -1 35.7207 64.6533)" fill="#4161FF"/>
<circle cx="39.1969" cy="89.0392" r="3.47624" fill="#4161FF"/>
<circle cx="3.47624" cy="3.47624" r="3.47624" transform="matrix(1 0 0 -1 28.5879 64.6533)" fill="#4161FF"/>
<circle cx="32.0641" cy="89.0392" r="3.47624" fill="#4161FF"/>
<circle cx="3.47624" cy="3.47624" r="3.47624" transform="matrix(1 0 0 -1 128.459 71.606)" fill="#4161FF"/>
<circle cx="131.935" cy="82.0871" r="3.47624" fill="#4161FF"/>
<circle cx="3.47624" cy="3.47624" r="3.47624" transform="matrix(1 0 0 -1 121.326 71.606)" fill="#4161FF"/>
<circle cx="124.802" cy="82.0871" r="3.47624" fill="#4161FF"/>
<circle cx="3.47624" cy="3.47624" r="3.47624" transform="matrix(1 0 0 -1 114.191 71.606)" fill="#4161FF"/>
<circle cx="117.668" cy="82.0871" r="3.47624" fill="#4161FF"/>
<circle cx="3.47624" cy="3.47624" r="3.47624" transform="matrix(1 0 0 -1 107.059 71.606)" fill="#4161FF"/>
<circle cx="110.535" cy="82.0871" r="3.47624" fill="#4161FF"/>
<circle cx="3.47624" cy="3.47624" r="3.47624" transform="matrix(1 0 0 -1 99.9258 71.606)" fill="#4161FF"/>
<circle cx="103.402" cy="82.0871" r="3.47624" fill="#4161FF"/>
<circle cx="3.47624" cy="3.47624" r="3.47624" transform="matrix(1 0 0 -1 92.791 71.606)" fill="#4161FF"/>
<circle cx="96.2673" cy="82.0871" r="3.47624" fill="#4161FF"/>
<circle cx="3.47624" cy="3.47624" r="3.47624" transform="matrix(1 0 0 -1 85.6562 71.606)" fill="#4161FF"/>
<circle cx="89.1325" cy="82.0871" r="3.47624" fill="#4161FF"/>
<circle cx="3.47624" cy="3.47624" r="3.47624" transform="matrix(1 0 0 -1 78.5234 71.606)" fill="#4161FF"/>
<circle cx="81.9997" cy="82.0871" r="3.47624" fill="#4161FF"/>
<circle cx="3.47624" cy="3.47624" r="3.47624" transform="matrix(1 0 0 -1 71.3906 71.606)" fill="#4161FF"/>
<circle cx="74.8669" cy="82.0871" r="3.47624" fill="#4161FF"/>
<circle cx="3.47624" cy="3.47624" r="3.47624" transform="matrix(1 0 0 -1 64.2559 71.606)" fill="#4161FF"/>
<circle cx="67.7321" cy="82.0871" r="3.47624" fill="#4161FF"/>
<circle cx="3.47624" cy="3.47624" r="3.47624" transform="matrix(1 0 0 -1 57.123 71.606)" fill="#4161FF"/>
<circle cx="60.5993" cy="82.0871" r="3.47624" fill="#4161FF"/>
<circle cx="3.47624" cy="3.47624" r="3.47624" transform="matrix(1 0 0 -1 49.9883 71.606)" fill="#4161FF"/>
<circle cx="53.4645" cy="82.0871" r="3.47624" fill="#4161FF"/>
<circle cx="3.47624" cy="3.47624" r="3.47624" transform="matrix(1 0 0 -1 42.8535 71.606)" fill="#4161FF"/>
<circle cx="46.3298" cy="82.0871" r="3.47624" fill="#4161FF"/>
<circle cx="3.47624" cy="3.47624" r="3.47624" transform="matrix(1 0 0 -1 35.7207 71.606)" fill="#4161FF"/>
<circle cx="39.1969" cy="82.0871" r="3.47624" fill="#4161FF"/>
<circle cx="3.47624" cy="3.47624" r="3.47624" transform="matrix(1 0 0 -1 28.5879 71.606)" fill="#4161FF"/>
<circle cx="32.0641" cy="82.0871" r="3.47624" fill="#4161FF"/>
<circle cx="3.47624" cy="3.47624" r="3.47624" transform="matrix(1 0 0 -1 21.4531 71.606)" fill="#4161FF"/>
<circle cx="24.9294" cy="82.0871" r="3.47624" fill="#4161FF"/>
<circle cx="3.47624" cy="3.47624" r="3.47624" transform="matrix(1 0 0 -1 128.459 78.5586)" fill="#4161FF"/>
<circle cx="131.935" cy="75.1344" r="3.47624" fill="#4161FF"/>
<circle cx="3.47624" cy="3.47624" r="3.47624" transform="matrix(1 0 0 -1 121.326 78.5586)" fill="#4161FF"/>
<circle cx="124.802" cy="75.1344" r="3.47624" fill="#4161FF"/>
<circle cx="3.47624" cy="3.47624" r="3.47624" transform="matrix(1 0 0 -1 114.191 78.5586)" fill="#4161FF"/>
<circle cx="117.668" cy="75.1344" r="3.47624" fill="#4161FF"/>
<circle cx="3.47624" cy="3.47624" r="3.47624" transform="matrix(1 0 0 -1 107.059 78.5586)" fill="#4161FF"/>
<circle cx="110.535" cy="75.1344" r="3.47624" fill="#4161FF"/>
<circle cx="3.47624" cy="3.47624" r="3.47624" transform="matrix(1 0 0 -1 99.9258 78.5586)" fill="#4161FF"/>
<circle cx="103.402" cy="75.1344" r="3.47624" fill="#4161FF"/>
<circle cx="3.47624" cy="3.47624" r="3.47624" transform="matrix(1 0 0 -1 92.791 78.5586)" fill="#4161FF"/>
<circle cx="96.2673" cy="75.1344" r="3.47624" fill="#4161FF"/>
<circle cx="3.47624" cy="3.47624" r="3.47624" transform="matrix(1 0 0 -1 85.6562 78.5586)" fill="#4161FF"/>
<circle cx="89.1325" cy="75.1344" r="3.47624" fill="#4161FF"/>
<circle cx="3.47624" cy="3.47624" r="3.47624" transform="matrix(1 0 0 -1 78.5234 78.5586)" fill="#4161FF"/>
<circle cx="81.9997" cy="75.1344" r="3.47624" fill="#4161FF"/>
<circle cx="3.47624" cy="3.47624" r="3.47624" transform="matrix(1 0 0 -1 71.3906 78.5586)" fill="#4161FF"/>
<circle cx="74.8669" cy="75.1344" r="3.47624" fill="#4161FF"/>
<circle cx="3.47624" cy="3.47624" r="3.47624" transform="matrix(1 0 0 -1 64.2559 78.5586)" fill="#4161FF"/>
<circle cx="67.7321" cy="75.1344" r="3.47624" fill="#4161FF"/>
<circle cx="3.47624" cy="3.47624" r="3.47624" transform="matrix(1 0 0 -1 57.123 78.5586)" fill="#4161FF"/>
<circle cx="60.5993" cy="75.1344" r="3.47624" fill="#4161FF"/>
<circle cx="3.47624" cy="3.47624" r="3.47624" transform="matrix(1 0 0 -1 49.9883 78.5586)" fill="#4161FF"/>
<circle cx="53.4645" cy="75.1344" r="3.47624" fill="#4161FF"/>
<circle cx="3.47624" cy="3.47624" r="3.47624" transform="matrix(1 0 0 -1 42.8535 78.5586)" fill="#4161FF"/>
<circle cx="46.3298" cy="75.1344" r="3.47624" fill="#4161FF"/>
<circle cx="3.47624" cy="3.47624" r="3.47624" transform="matrix(1 0 0 -1 35.7207 78.5586)" fill="#4161FF"/>
<circle cx="39.1969" cy="75.1344" r="3.47624" fill="#4161FF"/>
<circle cx="3.47624" cy="3.47624" r="3.47624" transform="matrix(1 0 0 -1 28.5879 78.5586)" fill="#4161FF"/>
<circle cx="32.0641" cy="75.1344" r="3.47624" fill="#4161FF"/>
<circle cx="3.47624" cy="3.47624" r="3.47624" transform="matrix(1 0 0 -1 21.4531 78.5586)" fill="#4161FF"/>
<circle cx="24.9294" cy="75.1344" r="3.47624" fill="#4161FF"/>
<circle cx="3.47624" cy="3.47624" r="3.47624" transform="matrix(1 0 0 -1 14.3203 78.5586)" fill="#4161FF"/>
<circle cx="17.7966" cy="75.1344" r="3.47624" fill="#4161FF"/>
</svg>
