<svg width="150" height="150" viewBox="0 0 150 150" fill="none" xmlns="http://www.w3.org/2000/svg">
<rect width="150" height="150" rx="75" transform="matrix(-1 0 0 1 150 0)" fill="#4161FF"/>
<circle cx="3.47624" cy="3.47624" r="3.47624" transform="matrix(1 0 0 -1 57.1226 36.8438)" fill="#E3E2E0"/>
<circle cx="60.5988" cy="116.849" r="3.47624" fill="#E3E2E0"/>
<circle cx="3.47624" cy="3.47624" r="3.47624" transform="matrix(1 0 0 -1 64.2563 43.7959)" fill="#E3E2E0"/>
<circle cx="67.7326" cy="109.897" r="3.47624" fill="#E3E2E0"/>
<circle cx="3.47624" cy="3.47624" r="3.47624" transform="matrix(1 0 0 -1 57.1226 43.7959)" fill="#E3E2E0"/>
<circle cx="60.5988" cy="109.897" r="3.47624" fill="#E3E2E0"/>
<circle cx="3.47624" cy="3.47624" r="3.47624" transform="matrix(1 0 0 -1 49.9888 43.7959)" fill="#E3E2E0"/>
<circle cx="53.465" cy="109.897" r="3.47624" fill="#E3E2E0"/>
<circle cx="3.47624" cy="3.47624" r="3.47624" transform="matrix(1 0 0 -1 57.1226 50.748)" fill="#E3E2E0"/>
<circle cx="60.5988" cy="102.945" r="3.47624" fill="#E3E2E0"/>
<circle cx="3.47624" cy="3.47624" r="3.47624" transform="matrix(1 0 0 -1 49.9888 50.748)" fill="#E3E2E0"/>
<circle cx="53.465" cy="102.945" r="3.47624" fill="#E3E2E0"/>
<circle cx="3.47624" cy="3.47624" r="3.47624" transform="matrix(1 0 0 -1 42.8535 50.748)" fill="#E3E2E0"/>
<circle cx="46.3298" cy="102.945" r="3.47624" fill="#E3E2E0"/>
<circle cx="3.47624" cy="3.47624" r="3.47624" transform="matrix(1 0 0 -1 49.9888 57.7007)" fill="#E3E2E0"/>
<circle cx="53.465" cy="95.9914" r="3.47624" fill="#E3E2E0"/>
<circle cx="3.47624" cy="3.47624" r="3.47624" transform="matrix(1 0 0 -1 42.8535 57.7007)" fill="#E3E2E0"/>
<circle cx="46.3298" cy="95.9914" r="3.47624" fill="#E3E2E0"/>
<circle cx="3.47624" cy="3.47624" r="3.47624" transform="matrix(1 0 0 -1 35.7212 57.7007)" fill="#E3E2E0"/>
<circle cx="39.1974" cy="95.9914" r="3.47624" fill="#E3E2E0"/>
<circle cx="3.47624" cy="3.47624" r="3.47624" transform="matrix(1 0 0 -1 42.8535 64.6533)" fill="#E3E2E0"/>
<circle cx="46.3298" cy="89.0392" r="3.47624" fill="#E3E2E0"/>
<circle cx="3.47624" cy="3.47624" r="3.47624" transform="matrix(1 0 0 -1 35.7212 64.6533)" fill="#E3E2E0"/>
<circle cx="39.1974" cy="89.0392" r="3.47624" fill="#E3E2E0"/>
<circle cx="3.47624" cy="3.47624" r="3.47624" transform="matrix(1 0 0 -1 28.5874 64.6533)" fill="#E3E2E0"/>
<circle cx="32.0636" cy="89.0392" r="3.47624" fill="#E3E2E0"/>
<circle cx="3.47624" cy="3.47624" r="3.47624" transform="matrix(1 0 0 -1 128.458 71.606)" fill="#E3E2E0"/>
<circle cx="131.934" cy="82.0871" r="3.47624" fill="#E3E2E0"/>
<circle cx="3.47624" cy="3.47624" r="3.47624" transform="matrix(1 0 0 -1 121.325 71.606)" fill="#E3E2E0"/>
<circle cx="124.801" cy="82.0871" r="3.47624" fill="#E3E2E0"/>
<circle cx="3.47624" cy="3.47624" r="3.47624" transform="matrix(1 0 0 -1 114.191 71.606)" fill="#E3E2E0"/>
<circle cx="117.668" cy="82.0871" r="3.47624" fill="#E3E2E0"/>
<circle cx="3.47624" cy="3.47624" r="3.47624" transform="matrix(1 0 0 -1 107.059 71.606)" fill="#E3E2E0"/>
<circle cx="110.535" cy="82.0871" r="3.47624" fill="#E3E2E0"/>
<circle cx="3.47624" cy="3.47624" r="3.47624" transform="matrix(1 0 0 -1 99.9253 71.606)" fill="#E3E2E0"/>
<circle cx="103.402" cy="82.0871" r="3.47624" fill="#E3E2E0"/>
<circle cx="3.47624" cy="3.47624" r="3.47624" transform="matrix(1 0 0 -1 92.79 71.606)" fill="#E3E2E0"/>
<circle cx="96.2663" cy="82.0871" r="3.47624" fill="#E3E2E0"/>
<circle cx="3.47624" cy="3.47624" r="3.47624" transform="matrix(1 0 0 -1 85.6562 71.606)" fill="#E3E2E0"/>
<circle cx="89.1325" cy="82.0871" r="3.47624" fill="#E3E2E0"/>
<circle cx="3.47624" cy="3.47624" r="3.47624" transform="matrix(1 0 0 -1 78.5225 71.606)" fill="#E3E2E0"/>
<circle cx="81.9987" cy="82.0871" r="3.47624" fill="#E3E2E0"/>
<circle cx="3.47624" cy="3.47624" r="3.47624" transform="matrix(1 0 0 -1 71.3901 71.606)" fill="#E3E2E0"/>
<circle cx="74.8664" cy="82.0871" r="3.47624" fill="#E3E2E0"/>
<circle cx="3.47624" cy="3.47624" r="3.47624" transform="matrix(1 0 0 -1 64.2563 71.606)" fill="#E3E2E0"/>
<circle cx="67.7326" cy="82.0871" r="3.47624" fill="#E3E2E0"/>
<circle cx="3.47624" cy="3.47624" r="3.47624" transform="matrix(1 0 0 -1 57.1226 71.606)" fill="#E3E2E0"/>
<circle cx="60.5988" cy="82.0871" r="3.47624" fill="#E3E2E0"/>
<circle cx="3.47624" cy="3.47624" r="3.47624" transform="matrix(1 0 0 -1 49.9888 71.606)" fill="#E3E2E0"/>
<circle cx="53.465" cy="82.0871" r="3.47624" fill="#E3E2E0"/>
<circle cx="3.47624" cy="3.47624" r="3.47624" transform="matrix(1 0 0 -1 42.8535 71.606)" fill="#E3E2E0"/>
<circle cx="46.3298" cy="82.0871" r="3.47624" fill="#E3E2E0"/>
<circle cx="3.47624" cy="3.47624" r="3.47624" transform="matrix(1 0 0 -1 35.7212 71.606)" fill="#E3E2E0"/>
<circle cx="39.1974" cy="82.0871" r="3.47624" fill="#E3E2E0"/>
<circle cx="3.47624" cy="3.47624" r="3.47624" transform="matrix(1 0 0 -1 28.5874 71.606)" fill="#E3E2E0"/>
<circle cx="32.0636" cy="82.0871" r="3.47624" fill="#E3E2E0"/>
<circle cx="3.47624" cy="3.47624" r="3.47624" transform="matrix(1 0 0 -1 21.4536 71.606)" fill="#E3E2E0"/>
<circle cx="24.9299" cy="82.0871" r="3.47624" fill="#E3E2E0"/>
<circle cx="3.47624" cy="3.47624" r="3.47624" transform="matrix(1 0 0 -1 128.458 78.5586)" fill="#E3E2E0"/>
<circle cx="131.934" cy="75.1344" r="3.47624" fill="#E3E2E0"/>
<circle cx="3.47624" cy="3.47624" r="3.47624" transform="matrix(1 0 0 -1 121.325 78.5586)" fill="#E3E2E0"/>
<circle cx="124.801" cy="75.1344" r="3.47624" fill="#E3E2E0"/>
<circle cx="3.47624" cy="3.47624" r="3.47624" transform="matrix(1 0 0 -1 114.191 78.5586)" fill="#E3E2E0"/>
<circle cx="117.668" cy="75.1344" r="3.47624" fill="#E3E2E0"/>
<circle cx="3.47624" cy="3.47624" r="3.47624" transform="matrix(1 0 0 -1 107.059 78.5586)" fill="#E3E2E0"/>
<circle cx="110.535" cy="75.1344" r="3.47624" fill="#E3E2E0"/>
<circle cx="3.47624" cy="3.47624" r="3.47624" transform="matrix(1 0 0 -1 99.9253 78.5586)" fill="#E3E2E0"/>
<circle cx="103.402" cy="75.1344" r="3.47624" fill="#E3E2E0"/>
<circle cx="3.47624" cy="3.47624" r="3.47624" transform="matrix(1 0 0 -1 92.79 78.5586)" fill="#E3E2E0"/>
<circle cx="96.2663" cy="75.1344" r="3.47624" fill="#E3E2E0"/>
<circle cx="3.47624" cy="3.47624" r="3.47624" transform="matrix(1 0 0 -1 85.6562 78.5586)" fill="#E3E2E0"/>
<circle cx="89.1325" cy="75.1344" r="3.47624" fill="#E3E2E0"/>
<circle cx="3.47624" cy="3.47624" r="3.47624" transform="matrix(1 0 0 -1 78.5225 78.5586)" fill="#E3E2E0"/>
<circle cx="81.9987" cy="75.1344" r="3.47624" fill="#E3E2E0"/>
<circle cx="3.47624" cy="3.47624" r="3.47624" transform="matrix(1 0 0 -1 71.3901 78.5586)" fill="#E3E2E0"/>
<circle cx="74.8664" cy="75.1344" r="3.47624" fill="#E3E2E0"/>
<circle cx="3.47624" cy="3.47624" r="3.47624" transform="matrix(1 0 0 -1 64.2563 78.5586)" fill="#E3E2E0"/>
<circle cx="67.7326" cy="75.1344" r="3.47624" fill="#E3E2E0"/>
<circle cx="3.47624" cy="3.47624" r="3.47624" transform="matrix(1 0 0 -1 57.1226 78.5586)" fill="#E3E2E0"/>
<circle cx="60.5988" cy="75.1344" r="3.47624" fill="#E3E2E0"/>
<circle cx="3.47624" cy="3.47624" r="3.47624" transform="matrix(1 0 0 -1 49.9888 78.5586)" fill="#E3E2E0"/>
<circle cx="53.465" cy="75.1344" r="3.47624" fill="#E3E2E0"/>
<circle cx="3.47624" cy="3.47624" r="3.47624" transform="matrix(1 0 0 -1 42.8535 78.5586)" fill="#E3E2E0"/>
<circle cx="46.3298" cy="75.1344" r="3.47624" fill="#E3E2E0"/>
<circle cx="3.47624" cy="3.47624" r="3.47624" transform="matrix(1 0 0 -1 35.7212 78.5586)" fill="#E3E2E0"/>
<circle cx="39.1974" cy="75.1344" r="3.47624" fill="#E3E2E0"/>
<circle cx="3.47624" cy="3.47624" r="3.47624" transform="matrix(1 0 0 -1 28.5874 78.5586)" fill="#E3E2E0"/>
<circle cx="32.0636" cy="75.1344" r="3.47624" fill="#E3E2E0"/>
<circle cx="3.47624" cy="3.47624" r="3.47624" transform="matrix(1 0 0 -1 21.4536 78.5586)" fill="#E3E2E0"/>
<circle cx="24.9299" cy="75.1344" r="3.47624" fill="#E3E2E0"/>
<circle cx="3.47624" cy="3.47624" r="3.47624" transform="matrix(1 0 0 -1 14.3198 78.5586)" fill="#E3E2E0"/>
<circle cx="17.7961" cy="75.1344" r="3.47624" fill="#E3E2E0"/>
</svg>
