<svg width="80" height="80" viewBox="0 0 80 80" fill="none" xmlns="http://www.w3.org/2000/svg">
<g clip-path="url(#clip0_2_13131)">
<circle cx="40" cy="40" r="40" fill="white"/>
<path d="M33.701 45.0164C36.5558 42.1266 39.3973 39.2368 42.2521 36.3605C45.6645 32.9062 49.077 29.4653 52.4894 26.011C53.6446 24.8416 54.7998 23.6723 55.9682 22.5029C58.4247 20.0298 62.5807 20.2852 64.7317 23.0406C66.7102 25.5809 66.511 28.8336 64.2537 31.132C59.6994 35.7422 55.1583 40.3658 50.6172 44.9626C46.3019 49.3309 41.9865 53.6992 37.6446 58.054C35.5599 60.1373 31.7492 60.0701 29.6247 57.9196C25.2828 53.511 20.9674 49.0755 16.5989 44.6804C15.5633 43.6454 14.7135 42.5567 14.4745 41.0648C14.0761 38.511 15.2977 35.9976 17.5682 34.7476C19.706 33.5648 22.5342 33.8201 24.194 35.433C25.8936 37.0728 27.5135 38.7798 29.1732 40.4599C30.6869 41.9787 32.1873 43.4841 33.701 45.0164Z" fill="#4161FF"/>
</g>
<defs>
<clipPath id="clip0_2_13131">
<rect width="80" height="80" fill="white"/>
</clipPath>
</defs>
</svg>
